<?xml version="1.0" encoding="UTF-8" standalone="no"?>
<!-- Created with Inkscape (http://www.inkscape.org/) -->

<svg
   xmlns:dc="http://purl.org/dc/elements/1.1/"
   xmlns:cc="http://creativecommons.org/ns#"
   xmlns:rdf="http://www.w3.org/1999/02/22-rdf-syntax-ns#"
   xmlns:svg="http://www.w3.org/2000/svg"
   xmlns="http://www.w3.org/2000/svg"
   xmlns:xlink="http://www.w3.org/1999/xlink"
   xmlns:sodipodi="http://sodipodi.sourceforge.net/DTD/sodipodi-0.dtd"
   xmlns:inkscape="http://www.inkscape.org/namespaces/inkscape"
   width="744.09448819"
   height="1052.3622047"
   id="svg2"
   version="1.1"
   inkscape:version="0.48.0 r9654"
   sodipodi:docname="Constraints_Fig.pdf">
  <defs
     id="defs4">
    <inkscape:path-effect
       effect="spiro"
       id="path-effect4644"
       is_visible="true" />
    <inkscape:path-effect
       effect="spiro"
       id="path-effect4640"
       is_visible="true" />
    <inkscape:path-effect
       effect="spiro"
       id="path-effect4636"
       is_visible="true" />
    <inkscape:path-effect
       effect="spiro"
       id="path-effect4632"
       is_visible="true" />
    <inkscape:path-effect
       effect="spiro"
       id="path-effect4452"
       is_visible="true" />
    <marker
       inkscape:stockid="Arrow1Mend"
       orient="auto"
       refY="0.0"
       refX="0.0"
       id="Arrow1Mend"
       style="overflow:visible;">
      <path
         id="path3832"
         d="M 0.0,0.0 L 5.0,-5.0 L -12.5,0.0 L 5.0,5.0 L 0.0,0.0 z "
         style="fill-rule:evenodd;stroke:#000000;stroke-width:1.0pt;marker-start:none;"
         transform="scale(0.4) rotate(180) translate(10,0)" />
    </marker>
    <marker
       inkscape:stockid="Arrow1Lend"
       orient="auto"
       refY="0.0"
       refX="0.0"
       id="Arrow1Lend"
       style="overflow:visible;">
      <path
         id="path3826"
         d="M 0.0,0.0 L 5.0,-5.0 L -12.5,0.0 L 5.0,5.0 L 0.0,0.0 z "
         style="fill-rule:evenodd;stroke:#000000;stroke-width:1.0pt;marker-start:none;"
         transform="scale(0.8) rotate(180) translate(12.5,0)" />
    </marker>
    <inkscape:path-effect
       effect="spiro"
       id="path-effect3818"
       is_visible="true" />
    <inkscape:path-effect
       effect="spiro"
       id="path-effect3765"
       is_visible="true" />
    <inkscape:path-effect
       effect="spiro"
       id="path-effect3761"
       is_visible="true" />
    <inkscape:path-effect
       effect="spiro"
       id="path-effect3757"
       is_visible="true" />
  </defs>
  <sodipodi:namedview
     id="base"
     pagecolor="#ffffff"
     bordercolor="#666666"
     borderopacity="1.0"
     inkscape:pageopacity="0.0"
     inkscape:pageshadow="2"
     inkscape:zoom="1.4"
     inkscape:cx="411.71191"
     inkscape:cy="834.15893"
     inkscape:document-units="px"
     inkscape:current-layer="layer1"
     showgrid="false"
     inkscape:object-paths="false"
     inkscape:object-nodes="false"
     inkscape:window-width="958"
     inkscape:window-height="1144"
     inkscape:window-x="480"
     inkscape:window-y="38"
     inkscape:window-maximized="0"
     showguides="true"
     inkscape:guide-bbox="true"
     inkscape:snap-grids="false"
     inkscape:snap-to-guides="false"
     inkscape:snap-nodes="false" />
  <metadata
     id="metadata7">
    <rdf:RDF>
      <cc:Work
         rdf:about="">
        <dc:format>image/svg+xml</dc:format>
        <dc:type
           rdf:resource="http://purl.org/dc/dcmitype/StillImage" />
        <dc:title></dc:title>
      </cc:Work>
    </rdf:RDF>
  </metadata>
  <g
     inkscape:label="Layer 1"
     inkscape:groupmode="layer"
     id="layer1">
    <g
       id="g6254">
      <path
         sodipodi:nodetypes="cccccccccccccccccccc"
         inkscape:connector-curvature="0"
         id="path4648"
         d="m 206.37985,226.07889 c 5.6453,0.081 11.1557,-2.1086 16.82,-1.177 3.6667,0.7541 7.0032,-1.3253 10.6012,-1.6027 3.8995,-0.7494 7.3053,-3.1496 11.4457,-3.1319 2.8389,-0.6264 5.6404,-1.7406 8.6467,-1.6784 4.1122,-0.3294 7.4519,-0.8709 11.3093,-2.3351 3.0554,-0.5893 6.2407,-2.1973 9.2384,-2.0245 3.2675,-0.5721 6.2108,0.965 7.9658,3.699 2.3254,2.5051 2.245,5.9591 2.3403,9.1394 -0.023,3.1551 -2.0689,6.478 -4.4749,8.9209 -3.6078,2.8807 -5.5024,4.2739 -9.4159,4.7651 -3.3646,1.3233 -7.1844,0.7899 -10.4321,2.497 -3.2519,1.1244 -8.1189,-0.086 -11.3561,1.1397 -3.0313,0.8068 -5.0346,0.141 -7.8499,1.8529 -3.4865,1.6375 -7.2528,2.4746 -11.0895,2.7504 -4.9118,0.6898 -9.8275,2.0815 -14.8264,1.2687 -3.427,-0.011 -6.8952,-0.1461 -10.2777,0.01 -1.6343,-3.5112 -2.662,-7.5072 -3.1793,-11.4032 -6e-4,-3.2749 -0.5059,-6.7577 0.3527,-9.9107 1.0155,-1.4099 3.1461,-1.3354 4.1817,-2.78 z"
         style="fill:#e6574b;fill-opacity:1;stroke:none" />
      <path
         inkscape:connector-curvature="0"
         id="path4530"
         d="m 207.94435,162.43649 c 4.377,0.5533 8.8137,0.2311 13.2031,0.6959 3.4903,-0.1361 6.9712,0.4052 10.45,0.255 5.6582,-1.0516 11.3388,-2.5716 17.1506,-1.9489 5.2047,0.7066 10.4958,0.1493 15.696,1.0068 3.7428,0.4893 7.9915,-0.5792 11.1883,2.0029 2.3204,1.8153 4.6708,4.0472 5.015,7.1509 1.0495,2.6977 0.4289,5.7309 -0.909,8.2059 -1.0004,2.637 -3.4173,4.3209 -5.8714,5.472 -2.3777,0.4478 -4.8266,1.4185 -7.2722,1.0149 -2.9683,0.6133 -5.8581,-0.4298 -8.8361,-0.4402 -3.2051,0.01 -6.335,-0.2921 -9.4865,-0.7914 -3.2165,-0.1894 -6.592,-0.6588 -9.6053,0.814 -2.866,0.965 -5.9524,1.1116 -8.9571,1.3027 -3.5183,-0.047 -6.9157,-1.2743 -10.4602,-1.1591 -2.8921,0.043 -5.7562,-0.063 -8.6225,-0.4313 -2.2287,-0.252 -6.3977,1.0621 -6.1304,-2.5539 -1.0074,-5.7072 -0.9055,-11.5536 -0.038,-17.2665 0.1749,-2.9736 0.3251,-3.9308 3.4862,-3.3297 z"
         style="fill:#e6574b;fill-opacity:1;stroke:none" />
      <path
         inkscape:connector-curvature="0"
         id="path3405"
         d="m 303.25845,146.29979 0,105.1464"
         style="fill:none;stroke:#000000;stroke-width:1.70753777;stroke-linecap:butt;stroke-linejoin:miter;stroke-miterlimit:4;stroke-opacity:1;stroke-dasharray:none" />
      <text
         sodipodi:linespacing="125%"
         id="text4175"
         y="155.52733"
         x="208.22165"
         style="font-size:2.1051836px;font-style:normal;font-variant:normal;font-weight:normal;font-stretch:normal;line-height:125%;letter-spacing:0px;word-spacing:0px;fill:#000000;fill-opacity:1;stroke:none;font-family:Oswald;-inkscape-font-specification:Oswald"
         xml:space="preserve"><tspan
           style="font-size:8.42073441px;font-style:normal;font-variant:normal;font-weight:normal;font-stretch:normal;font-family:DejaVu Sans Mono;-inkscape-font-specification:DejaVu Sans Mono"
           y="155.52733"
           x="208.22165"
           id="tspan4177"
           sodipodi:role="line">\huge{B1}</tspan></text>
      <text
         xml:space="preserve"
         style="font-size:2.1051836px;font-style:normal;font-variant:normal;font-weight:normal;font-stretch:normal;line-height:125%;letter-spacing:0px;word-spacing:0px;fill:#000000;fill-opacity:1;stroke:none;font-family:Oswald;-inkscape-font-specification:Oswald"
         x="208.22165"
         y="216.43626"
         id="text4179"
         sodipodi:linespacing="125%"><tspan
           sodipodi:role="line"
           id="tspan4181"
           x="208.22165"
           y="216.43626"
           style="font-size:8.42073441px;font-style:normal;font-variant:normal;font-weight:normal;font-stretch:normal;font-family:DejaVu Sans Mono;-inkscape-font-specification:DejaVu Sans Mono">\huge{B2}</tspan></text>
      <text
         sodipodi:linespacing="125%"
         id="text4183"
         y="178.99046"
         x="318.81613"
         style="font-size:2.1051836px;font-style:normal;font-variant:normal;font-weight:normal;font-stretch:normal;line-height:125%;letter-spacing:0px;word-spacing:0px;fill:#000000;fill-opacity:1;stroke:none;font-family:Oswald;-inkscape-font-specification:Oswald"
         xml:space="preserve"><tspan
           style="font-size:8.42073441px;font-style:normal;font-variant:normal;font-weight:normal;font-stretch:normal;font-family:DejaVu Sans Mono;-inkscape-font-specification:DejaVu Sans Mono"
           y="178.99046"
           x="318.81613"
           id="tspan4185"
           sodipodi:role="line">\huge{C1}</tspan></text>
      <text
         xml:space="preserve"
         style="font-size:2.1051836px;font-style:normal;font-variant:normal;font-weight:normal;font-stretch:normal;line-height:125%;letter-spacing:0px;word-spacing:0px;fill:#000000;fill-opacity:1;stroke:none;font-family:Oswald;-inkscape-font-specification:Oswald"
         x="318.81613"
         y="231.4287"
         id="text4187"
         sodipodi:linespacing="125%"><tspan
           sodipodi:role="line"
           id="tspan4189"
           x="318.81613"
           y="231.4287"
           style="font-size:8.42073441px;font-style:normal;font-variant:normal;font-weight:normal;font-stretch:normal;font-family:DejaVu Sans Mono;-inkscape-font-specification:DejaVu Sans Mono">\huge{C2}</tspan></text>
      <rect
         y="159.30821"
         x="206.1904"
         height="15.679012"
         width="15.636012"
         id="rect4416"
         style="color:#000000;fill:none;stroke:#868686;stroke-width:0.63544345;stroke-miterlimit:4;stroke-opacity:1;stroke-dasharray:none;marker:none;visibility:visible;display:inline;overflow:visible;enable-background:accumulate" />
      <rect
         style="color:#000000;fill:none;stroke:#868686;stroke-width:0.63544345;stroke-miterlimit:4;stroke-opacity:1;stroke-dasharray:none;marker:none;visibility:visible;display:inline;overflow:visible;enable-background:accumulate"
         id="rect4418"
         width="15.636012"
         height="15.679012"
         x="221.81223"
         y="159.30821" />
      <rect
         y="159.30821"
         x="237.85178"
         height="15.679012"
         width="15.636012"
         id="rect4420"
         style="color:#000000;fill:none;stroke:#868686;stroke-width:0.63544345;stroke-miterlimit:4;stroke-opacity:1;stroke-dasharray:none;marker:none;visibility:visible;display:inline;overflow:visible;enable-background:accumulate" />
      <rect
         style="color:#000000;fill:none;stroke:#868686;stroke-width:0.63544345;stroke-miterlimit:4;stroke-opacity:1;stroke-dasharray:none;marker:none;visibility:visible;display:inline;overflow:visible;enable-background:accumulate"
         id="rect4422"
         width="15.636012"
         height="15.679012"
         x="253.89108"
         y="159.30821" />
      <rect
         y="159.30821"
         x="269.93063"
         height="15.679012"
         width="15.636012"
         id="rect4424"
         style="color:#000000;fill:none;stroke:#868686;stroke-width:0.63544345;stroke-miterlimit:4;stroke-opacity:1;stroke-dasharray:none;marker:none;visibility:visible;display:inline;overflow:visible;enable-background:accumulate" />
      <rect
         style="color:#000000;fill:none;stroke:#868686;stroke-width:0.63544345;stroke-miterlimit:4;stroke-opacity:1;stroke-dasharray:none;marker:none;visibility:visible;display:inline;overflow:visible;enable-background:accumulate"
         id="rect4426"
         width="15.636012"
         height="15.679012"
         x="206.1069"
         y="175.09703" />
      <rect
         y="175.09703"
         x="221.72873"
         height="15.679012"
         width="15.636012"
         id="rect4428"
         style="color:#000000;fill:none;stroke:#868686;stroke-width:0.63544345;stroke-miterlimit:4;stroke-opacity:1;stroke-dasharray:none;marker:none;visibility:visible;display:inline;overflow:visible;enable-background:accumulate" />
      <rect
         style="color:#000000;fill:none;stroke:#868686;stroke-width:0.63544345;stroke-miterlimit:4;stroke-opacity:1;stroke-dasharray:none;marker:none;visibility:visible;display:inline;overflow:visible;enable-background:accumulate"
         id="rect4430"
         width="15.636012"
         height="15.679012"
         x="237.76804"
         y="175.09703" />
      <rect
         y="175.09703"
         x="253.80759"
         height="15.679012"
         width="15.636012"
         id="rect4432"
         style="color:#000000;fill:none;stroke:#868686;stroke-width:0.63544345;stroke-miterlimit:4;stroke-opacity:1;stroke-dasharray:none;marker:none;visibility:visible;display:inline;overflow:visible;enable-background:accumulate" />
      <rect
         style="color:#000000;fill:none;stroke:#868686;stroke-width:0.63544345;stroke-miterlimit:4;stroke-opacity:1;stroke-dasharray:none;marker:none;visibility:visible;display:inline;overflow:visible;enable-background:accumulate"
         id="rect4434"
         width="15.636012"
         height="15.679012"
         x="269.84714"
         y="175.09703" />
      <path
         style="fill:#868686;fill-opacity:1;stroke:#868686;stroke-width:0.05847732;stroke-opacity:1"
         d="m 205.94765,254.53069 c -0.069,-0.069 -0.046,-31.9367 0.023,-31.9795 0.034,-0.021 4.1327,-0.4699 9.1079,-0.9975 l 9.0458,-0.9591 8.2161,-1.2026 c 7.4735,-1.0938 8.9178,-1.324 15.9803,-2.5464 l 7.7643,-1.3439 8.2878,-2.0681 8.2877,-2.0681 7.3618,-1.4718 c 5.7897,-1.1576 7.3719,-1.4557 7.4087,-1.396 0.026,0.042 0.064,0.2477 0.085,0.4578 0.069,0.6947 1.8312,14.5093 2.0103,15.7615 0.2306,1.6131 2.2645,14.9368 2.3422,15.3437 0.1092,0.5715 0.109,0.572 -0.3345,0.7032 -0.2171,0.064 -4.2235,1.185 -8.9032,2.4907 l -8.5084,2.374 -8.3662,1.808 -8.3661,1.808 -8.4753,1.3178 -8.4754,1.3178 -8.9178,1.1089 -8.9178,1.1089 -8.0991,0.2364 c -8.9295,0.2606 -8.5026,0.2509 -8.5572,0.1963 z m 9.0831,-0.8722 c 3.9075,-0.1127 7.1249,-0.2252 7.1498,-0.2501 0.075,-0.075 0.544,-14.0333 0.4739,-14.1035 -0.067,-0.067 -15.7314,-0.3914 -15.8931,-0.3293 -0.084,0.032 -0.092,0.7458 -0.092,7.459 0,5.886 0.015,7.429 0.073,7.4498 0.04,0.014 0.3231,0.015 0.6286,0 0.3055,-0.013 3.7526,-0.1158 7.6601,-0.2285 z m 16.4033,-1.31 c 4.4063,-0.5457 8.0954,-1.0069 8.1982,-1.0249 0.1062,-0.019 0.1992,-0.076 0.2157,-0.133 0.067,-0.2311 0.8699,-14.6987 0.8189,-14.7497 -0.067,-0.067 -17.0268,2.7131 -17.1203,2.8067 -0.066,0.065 -0.5887,13.9182 -0.5318,14.0823 0.018,0.051 0.089,0.065 0.2171,0.043 0.105,-0.018 3.7959,-0.479 8.2022,-1.0248 z m 17.4421,-2.4615 c 4.3654,-0.6778 7.9677,-1.2633 8.0052,-1.3011 0.091,-0.092 0.3604,-14.1658 0.2727,-14.2536 -0.077,-0.077 -15.4584,1.8537 -15.552,1.9525 -0.043,0.045 -0.2113,2.6037 -0.4844,7.3496 -0.2304,4.0043 -0.418,7.3265 -0.4169,7.3828 0,0.063 0.047,0.1023 0.1202,0.1023 0.065,0 3.6898,-0.5546 8.0552,-1.2325 z m 16.8088,-3.0962 c 4.3183,-0.9334 7.8831,-1.7295 7.9218,-1.7689 0.098,-0.1 -0.078,-14.3073 -0.1779,-14.4056 -0.049,-0.048 -2.0582,0.3988 -7.6978,1.713 -4.1972,0.9781 -7.6618,1.8101 -7.699,1.849 -0.049,0.051 -0.102,1.8887 -0.1911,6.62 -0.1405,7.4592 -0.1425,7.6898 -0.064,7.6898 0.031,0 3.5901,-0.7638 7.9083,-1.6973 z m 17.1586,-4.2698 c 4.4978,-1.2557 8.201,-2.3062 8.2293,-2.3345 0.056,-0.056 -2.2214,-15.1453 -2.2977,-15.2241 -0.044,-0.045 -14.3655,5.2918 -14.4638,5.3902 -0.027,0.027 -0.01,3.079 0.042,6.7832 0.05,3.7041 0.091,6.9448 0.091,7.2015 0,0.419 0.011,0.4667 0.1107,0.4667 0.061,0 3.7908,-1.0274 8.2887,-2.283 z m -60.1611,-4.1091 c 0.04,-0.048 0.2289,-3.1823 0.5127,-8.5144 0.49,-9.2035 0.4818,-8.5721 0.1106,-8.5131 -0.096,0.015 -3.8069,0.41 -8.2453,0.8769 -4.4385,0.4669 -8.1287,0.8622 -8.2006,0.8784 l -0.1307,0.029 -0.015,7.4403 c -0.01,4.0922 0,7.4657 0.029,7.4967 0.027,0.034 3.0902,0.1171 7.8067,0.2111 4.2691,0.085 7.8312,0.1584 7.9157,0.1629 0.084,0 0.1823,-0.026 0.2172,-0.068 z m 9.5411,-1.4182 c 4.6474,-0.7616 8.4739,-1.4068 8.5033,-1.4339 0.081,-0.075 -0.4273,-16.4453 -0.5121,-16.498 -0.037,-0.023 -0.1194,-0.03 -0.184,-0.015 -0.1365,0.03 -15.3075,2.2494 -15.386,2.2507 -0.2083,0 -0.2045,-0.046 -0.6641,8.5445 -0.2771,5.1805 -0.431,8.4692 -0.3982,8.5119 0.029,0.038 0.084,0.06 0.1223,0.047 0.038,-0.012 3.8713,-0.6454 8.5188,-1.407 z m 17.2204,-2.5096 c 4.2092,-0.5299 7.6778,-0.9882 7.7079,-1.0183 0.034,-0.034 -0.2291,-3.2523 -0.6974,-8.5245 l -0.7523,-8.4696 -0.1462,-0.017 c -0.1821,-0.021 -14.3968,2.4346 -14.4623,2.4985 -0.044,0.043 0.4109,16.2558 0.4606,16.4212 0.012,0.04 0.07,0.073 0.1293,0.073 0.059,0 3.5512,-0.4336 7.7604,-0.9635 z m 16.2535,-2.9234 c 4.2105,-0.98 7.6758,-1.8024 7.7007,-1.8275 0.031,-0.032 -1.069,-17.1873 -1.1141,-17.3695 0,-0.01 -0.056,-0.015 -0.1207,-0.015 -0.1668,0 -15.6315,3.8659 -15.6955,3.9236 -0.048,0.043 1.3904,16.7077 1.4644,16.9674 0.016,0.056 0.047,0.1023 0.07,0.1023 0.022,0 3.4853,-0.8018 7.6957,-1.7817 z m 15.7473,-4.744 c 3.9169,-1.4664 7.1583,-2.7014 7.2032,-2.7444 0.07,-0.067 -0.053,-1.1411 -0.8355,-7.3187 -0.5044,-3.9824 -0.9416,-7.2994 -0.9716,-7.3711 -0.03,-0.072 -0.088,-0.1195 -0.1293,-0.1062 -0.041,0.013 -3.0828,0.6215 -6.7591,1.3516 -4.4287,0.8795 -6.7233,1.3594 -6.8002,1.422 -0.1152,0.094 -0.1125,0.1458 0.4452,8.6322 0.3086,4.6957 0.5732,8.5969 0.5881,8.6693 0.015,0.072 0.052,0.1315 0.082,0.1315 0.03,0 3.2601,-1.1998 7.177,-2.6662 z"
         id="path4642-0"
         inkscape:connector-curvature="0" />
      <rect
         y="149.51476"
         x="200.10715"
         height="110.34744"
         width="6.5946665"
         id="rect4191"
         style="color:#000000;fill:#ffffff;fill-opacity:1;fill-rule:nonzero;stroke:none;stroke-width:29.20000076;marker:none;visibility:visible;display:inline;overflow:visible;enable-background:accumulate" />
      <path
         sodipodi:nodetypes="cccccccccccccccccccc"
         inkscape:connector-curvature="0"
         id="path4693"
         d="m 316.50405,149.37339 c 4.5552,-0.9343 8.6948,-0.1728 13.267,0.2259 3.2053,0.2105 6.9071,-0.9432 10.1011,-0.3399 3.5076,0.4493 7.0766,1.2367 10.5863,0.3287 2.4092,-0.4341 5.6351,-0.3832 8.5297,0.078 3.8913,0.5278 7.4683,0.7015 11.3309,-0.2891 2.4552,-0.3175 5.2898,1.5513 8.231,0.2705 3.3956,-0.8005 8.241,-0.9442 11.5897,0.1059 2.8651,-0.2288 5.2772,-0.2785 6.4213,4.0168 0.5957,2.4396 -0.023,4.7019 -2.1235,6.3798 -2.9124,2.4872 -7.6696,-0.3284 -9.0631,0.3332 -5.8949,-0.3448 -6.1944,0.9139 -9.4546,0.9783 -3.8271,-0.9501 -5.4689,-0.9895 -8.5402,-0.025 -4.4005,0.1534 -8.7718,-0.9905 -15.1663,-0.6008 -5.3286,0.734 -4.637,0.7281 -10.4946,0.1671 -5.4473,-1.3995 -8.9245,0.5486 -13.895,-0.2791 -5.098,-0.5916 -6.2618,-0.6071 -9.3503,-0.3646 -1.8574,0.4201 -4.2066,0.9071 -3.8382,-2.2557 -0.956,-2.9122 -1.8213,-6.9265 1.4511,-8.647 -0.3288,0.2301 0.393,-0.105 0.4177,-0.083 z"
         style="fill:#e6574b;fill-opacity:1;stroke:none" />
      <path
         sodipodi:nodetypes="ccccccccccccccccccccc"
         inkscape:connector-curvature="0"
         id="path4697"
         d="m 428.61335,195.82109 c -3.3927,0.5525 -8.4406,-0.9751 -12.8129,-0.616 -5.7091,0.9493 -6.4535,-0.026 -9.7008,0.01 -2.7806,-0.5992 -5.998,-0.9228 -8.8472,-0.099 -3.3811,0.3689 -7.3055,0.4142 -10.6976,-0.4921 -2.5188,-0.2618 -4.2906,-0.1801 -6.8468,0.2611 -3.3537,0.8247 -5.4233,0.1733 -8.2832,-0.2527 -4.2126,0.9834 -9.9535,1.3471 -14.2171,0.273 -3.656,0.2057 -4.5411,-0.6783 -5.6754,-3.5509 -0.5844,-2.7815 -0.07,-5.9072 2.8451,-7.5645 2.86,-0.6277 6.063,0.3765 8.9849,0.4555 2.7456,-0.2847 6.563,-0.9298 8.3568,-1.1283 3.1211,0.2585 4.3927,1.3945 7.3357,0.3327 3.1671,-0.4088 7.8838,-0.4581 10.9635,0.425 3.9524,-0.05 5.6949,0.3229 9.1746,-0.6282 3.1745,-0.5625 9.6806,1.1329 11.1534,0.9931 2.695,-0.2268 5.0798,-0.7207 7.8446,-0.4456 4.1907,-0.1634 6.7913,1.34 10.8299,0.4621 2.8812,-1.2325 3.0522,3.2688 2.9882,5.2548 0.7049,2.5626 3.8417,7.5438 -0.2621,5.7529 z"
         style="fill:#e6574b;fill-opacity:1;stroke:none" />
      <g
         style="stroke:#868686;stroke-opacity:1"
         transform="matrix(0.05847732,0,0,0.05847732,288.47295,189.72379)"
         id="g4672">
        <rect
           style="color:#000000;fill:none;stroke:#868686;stroke-width:10.35672569;stroke-opacity:1;marker:none;visibility:visible;display:inline;overflow:visible;enable-background:accumulate"
           id="rect4660"
           width="280.52679"
           height="273.51877"
           x="485.63312"
           y="-723.1048"
           inkscape:tile-cx="3284.9599"
           inkscape:tile-cy="157.00664"
           inkscape:tile-w="280.52679"
           inkscape:tile-h="273.51877"
           inkscape:tile-x0="3144.6965"
           inkscape:tile-y0="20.247253" />
        <use
           style="stroke:#868686;stroke-opacity:1"
           x="0"
           y="0"
           inkscape:tiled-clone-of="#rect4660"
           xlink:href="#rect4660"
           transform="translate(280.52679,0)"
           id="use4664"
           width="3941.4287"
           height="2227.6191" />
        <use
           style="stroke:#868686;stroke-opacity:1"
           x="0"
           y="0"
           inkscape:tiled-clone-of="#rect4660"
           xlink:href="#rect4660"
           transform="translate(561.05359,0)"
           id="use4666"
           width="3941.4287"
           height="2227.6191" />
        <use
           style="stroke:#868686;stroke-opacity:1"
           x="0"
           y="0"
           inkscape:tiled-clone-of="#rect4660"
           xlink:href="#rect4660"
           transform="translate(841.58038,0)"
           id="use4668"
           width="3941.4287"
           height="2227.6191" />
        <use
           style="stroke:#868686;stroke-opacity:1"
           x="0"
           y="0"
           inkscape:tiled-clone-of="#rect4660"
           xlink:href="#rect4660"
           transform="translate(1122.1072,0)"
           id="use4670"
           width="3941.4287"
           height="2227.6191" />
      </g>
      <g
         style="stroke:#868686;stroke-opacity:1"
         id="g4679"
         transform="matrix(0.05847732,0,0,0.05847732,320.60765,223.39429)">
        <rect
           inkscape:tile-y0="20.247253"
           inkscape:tile-x0="3144.6965"
           inkscape:tile-h="273.51877"
           inkscape:tile-w="280.52679"
           inkscape:tile-cy="157.00664"
           inkscape:tile-cx="3284.9599"
           y="-723.1048"
           x="485.63312"
           height="273.51877"
           width="280.52679"
           id="rect4681"
           style="color:#000000;fill:none;stroke:#868686;stroke-width:10.35672569;stroke-opacity:1;marker:none;visibility:visible;display:inline;overflow:visible;enable-background:accumulate" />
        <use
           style="stroke:#868686;stroke-opacity:1"
           height="2227.6191"
           width="3941.4287"
           id="use4683"
           transform="translate(280.52679,0)"
           xlink:href="#rect4660"
           inkscape:tiled-clone-of="#rect4660"
           y="0"
           x="0" />
        <use
           style="stroke:#868686;stroke-opacity:1"
           height="2227.6191"
           width="3941.4287"
           id="use4685"
           transform="translate(561.05359,0)"
           xlink:href="#rect4660"
           inkscape:tiled-clone-of="#rect4660"
           y="0"
           x="0" />
        <use
           style="stroke:#868686;stroke-opacity:1"
           height="2227.6191"
           width="3941.4287"
           id="use4687"
           transform="translate(841.58038,0)"
           xlink:href="#rect4660"
           inkscape:tiled-clone-of="#rect4660"
           y="0"
           x="0" />
        <use
           style="stroke:#868686;stroke-opacity:1"
           height="2227.6191"
           width="3941.4287"
           id="use4689"
           transform="translate(1122.1072,0)"
           xlink:href="#rect4660"
           inkscape:tiled-clone-of="#rect4660"
           y="0"
           x="0" />
      </g>
      <path
         style="fill:#e6574b;fill-opacity:1"
         d="m 425.04925,245.99489 c -0.855,-0.036 -1.8316,-0.1479 -2.7192,-0.3117 -0.2412,-0.044 -0.7675,-0.1112 -1.1695,-0.1481 -0.4021,-0.037 -1.1644,-0.1193 -1.6941,-0.183 -0.5395,-0.065 -1.504,-0.1272 -2.1929,-0.1416 -0.6764,-0.014 -1.4272,-0.052 -1.6684,-0.083 -0.2412,-0.032 -0.8295,-0.085 -1.3072,-0.1178 -0.4778,-0.033 -0.8857,-0.07 -0.9064,-0.083 -0.021,-0.013 -0.3707,-0.066 -0.7776,-0.1186 -0.9235,-0.119 -2.8567,-0.5987 -3.7348,-0.9269 -1.23,-0.4596 -1.839,-0.6955 -1.9496,-0.7549 -0.069,-0.037 -0.441,-0.191 -0.827,-0.3422 -0.3859,-0.1512 -0.8859,-0.3566 -1.111,-0.4563 -1.2158,-0.5388 -3.1545,-1.2713 -3.8854,-1.468 -1.3201,-0.3554 -1.5417,-0.3789 -2.7175,-0.2886 -1.4676,0.1128 -2.9248,0.081 -4.1569,-0.092 -0.5468,-0.077 -1.231,-0.1694 -1.5205,-0.2061 -1.3555,-0.1721 -1.8373,-0.2624 -2.9531,-0.5534 -0.6593,-0.172 -1.554,-0.4355 -1.9882,-0.5857 -1.2706,-0.4393 -1.6361,-0.5412 -2.1932,-0.6113 -0.7863,-0.099 -1.1841,-0.1553 -2.3095,-0.3273 -0.9714,-0.1485 -1.064,-0.1531 -1.8227,-0.089 -0.8752,0.074 -2.0293,0.2589 -3.1187,0.5003 -0.8462,0.1875 -2.0055,0.2518 -2.7288,0.1513 -0.2681,-0.037 -0.8822,-0.1446 -1.3646,-0.2385 -0.4824,-0.094 -1.1008,-0.2141 -1.3742,-0.2669 -0.2734,-0.053 -0.828,-0.1101 -1.2325,-0.1272 -0.7151,-0.03 -0.7622,-0.024 -1.6959,0.2076 -1.2727,0.3164 -1.809,0.4054 -3.0655,0.5083 -0.579,0.047 -1.2368,0.1166 -1.462,0.1537 -0.5925,0.098 -4.3232,0.099 -5.1752,0 -0.8365,-0.095 -2.2622,-0.3332 -2.69,-0.449 -0.3918,-0.106 -0.8185,-0.1105 -1.6538,-0.018 -0.5599,0.062 -0.6954,0.058 -1.1335,-0.032 -1.3835,-0.2848 -2.3912,-1.176 -3.0384,-2.6871 -0.8527,-1.991 -0.7592,-4.5218 0.2362,-6.3931 0.7201,-1.3536 1.7906,-2.2451 3.0165,-2.5121 0.2606,-0.057 0.8422,-0.1074 1.4327,-0.1248 1.0777,-0.032 1.5019,0.021 3.1578,0.389 1.225,0.2726 1.6334,0.3097 3.3448,0.3038 1.2478,0 1.7706,-0.031 2.4268,-0.1223 0.46,-0.064 1.1784,-0.1422 1.5965,-0.1734 0.5454,-0.04 0.9255,-0.1059 1.345,-0.2313 1.3153,-0.393 2.0975,-0.5031 3.2545,-0.4579 1.2979,0.051 2.1605,0.1772 4.0844,0.5989 0.5182,0.1136 1.3453,0.091 1.9298,-0.053 2.1628,-0.5318 4.1841,-0.665 6.0524,-0.3991 0.5146,0.073 1.133,0.1573 1.3742,0.1867 1.9686,0.2399 1.8368,0.2092 4.3834,1.0208 0.8293,0.2643 1.8814,0.48 2.9847,0.6121 0.3056,0.036 0.7266,0.09 0.9357,0.1195 1.1424,0.1594 1.7643,0.1925 2.8863,0.154 0.6454,-0.022 1.3718,-0.069 1.6142,-0.1029 0.7768,-0.1102 1.6704,-0.087 2.1659,0.056 0.2412,0.069 0.9386,0.2564 1.5496,0.4152 1.0926,0.2839 2.1683,0.6308 2.8631,0.9232 0.1939,0.082 0.6685,0.2616 1.0546,0.3999 1.9068,0.683 2.4708,0.892 2.6318,0.9754 0.3045,0.1575 1.4941,0.5204 2.1929,0.669 1.269,0.2697 1.6102,0.3175 2.6607,0.3727 1.415,0.074 2.1558,0.1499 2.6701,0.2724 0.3461,0.082 0.7292,0.1039 1.9789,0.111 1.4462,0.01 1.5906,0.019 2.1636,0.1583 0.3377,0.082 0.9167,0.1925 1.2865,0.245 0.8133,0.1156 1.9381,0.3424 2.4561,0.4953 1.0466,0.309 3.1693,0.5585 4.7513,0.5585 l 0.8625,0 0,5.7976 0,5.7975 -0.134,0.034 c -0.4212,0.1058 -2.3903,0.1507 -3.8717,0.088 z m -59.7053,-27.3018 c -0.1287,-0.025 -0.6813,-0.1027 -1.2281,-0.1716 -2.9309,-0.3694 -3.0664,-0.3963 -4.7659,-0.945 -1.5159,-0.4896 -2.1106,-0.6278 -3.3624,-0.7817 -0.7771,-0.096 -1.2287,-0.1508 -1.9005,-0.2323 -1.1051,-0.134 -2.5238,-0.1055 -4.4108,0.088 -0.791,0.081 -0.9882,0.057 -2.1679,-0.2706 -0.386,-0.1071 -0.9781,-0.2608 -1.3158,-0.3414 -0.6485,-0.155 -2.1099,-0.6345 -2.6022,-0.8539 -0.1608,-0.072 -0.6213,-0.2445 -1.0234,-0.384 -1.4487,-0.5028 -2.4886,-0.8832 -2.6607,-0.9733 -0.3027,-0.1585 -1.4667,-0.5035 -2.2101,-0.6551 -1.3259,-0.2704 -1.7911,-0.33 -3.0127,-0.3861 -1.2456,-0.057 -1.854,-0.1205 -2.5254,-0.2631 -0.2091,-0.044 -0.8012,-0.1092 -1.3158,-0.144 -1.2294,-0.083 -1.8132,-0.16 -2.4743,-0.3253 -0.2995,-0.075 -0.8258,-0.1794 -1.1696,-0.2323 -0.8663,-0.1333 -2.251,-0.4221 -2.6716,-0.5572 -0.8544,-0.2745 -2.39,-0.4786 -4.2396,-0.5634 -0.8078,-0.037 -2.0403,0.093 -2.8712,0.3041 -0.314,0.08 -0.5859,0.1447 -0.6042,0.1447 -0.018,0 -0.033,-2.6 -0.033,-5.7777 l 0,-5.7777 0.6872,-0.1293 c 0.9469,-0.1781 1.5725,-0.2465 2.7398,-0.2994 1.1785,-0.053 3.1798,-0.026 3.678,0.051 0.193,0.03 0.5219,0.07 0.731,0.091 0.2091,0.02 0.5906,0.073 0.8479,0.1167 0.2573,0.044 0.7968,0.11 1.1988,0.1466 1.0434,0.095 2.8334,0.2879 3.2455,0.3497 0.193,0.029 0.5877,0.069 0.8772,0.09 0.2894,0.02 0.8157,0.073 1.1695,0.1173 0.3538,0.044 0.9196,0.097 1.2573,0.1169 1.1359,0.068 2.9035,0.3152 3.6256,0.5065 1.9022,0.5041 2.8392,0.8269 5.0583,1.7429 0.4824,0.1991 1.2594,0.5137 1.7267,0.6991 0.4672,0.1854 0.9014,0.364 0.9648,0.3969 0.2946,0.1531 1.7638,0.6711 2.3397,0.825 1.3897,0.3714 1.5673,0.3876 2.9936,0.2727 1.7281,-0.1391 2.5155,-0.1034 4.4893,0.2037 0.193,0.03 0.5614,0.082 0.8187,0.116 1.1592,0.1523 1.7779,0.2478 2.0759,0.3206 1.3389,0.3271 2.9521,0.8074 3.677,1.0947 0.4752,0.1884 0.9545,0.301 1.7056,0.4007 0.7144,0.095 1.0759,0.1473 2.1902,0.3179 1.0474,0.1603 1.4746,0.1553 2.7464,-0.032 0.2263,-0.033 0.5721,-0.084 0.7685,-0.1135 0.1964,-0.029 0.578,-0.1043 0.8479,-0.167 1.6616,-0.3865 2.7833,-0.3939 4.4671,-0.03 0.9911,0.2144 2.4887,0.4332 2.9652,0.4332 0.4027,0 0.7015,-0.049 1.4082,-0.2288 1.102,-0.2812 2.1406,-0.4503 3.2696,-0.5324 0.4727,-0.034 1.0122,-0.089 1.1988,-0.1208 0.3299,-0.057 3.7987,-0.1733 4.0656,-0.1367 0.073,0.01 0.4622,0.048 0.8642,0.083 0.9973,0.089 2.261,0.272 2.8908,0.4189 0.5389,0.1257 0.6169,0.1262 2.0821,0.014 1.9758,-0.1519 3.7038,1.4183 4.2736,3.8832 0.169,0.731 0.2116,2.0856 0.09,2.8548 -0.3263,2.0601 -1.4885,3.8182 -2.9694,4.492 -0.4355,0.1981 -1.4062,0.3839 -2.2189,0.4248 -0.7895,0.04 -1.3831,-0.026 -2.8615,-0.3146 -1.4638,-0.2861 -1.7705,-0.3128 -3.5901,-0.3119 -1.3039,7e-4 -1.7966,0.024 -2.456,0.1164 -0.4537,0.064 -1.1802,0.1415 -1.6144,0.1731 -0.6325,0.046 -0.9472,0.1036 -1.5827,0.2891 -1.9772,0.5771 -3.6609,0.5434 -6.7989,-0.136 -0.8322,-0.1802 -1.3699,-0.1892 -2.0988,-0.035 -1.9006,0.4018 -3.2818,0.5873 -4.3144,0.5796 -0.402,0 -0.8362,-0.026 -0.9648,-0.052 z"
         id="path4842"
         inkscape:connector-curvature="0" />
      <path
         style="fill:#868686;fill-opacity:1;stroke:#868686;stroke-width:0.05847732;stroke-opacity:1"
         d="m 415.91135,247.94769 c -0.039,-0.039 -15.6804,-4.1469 -16.4806,-4.3286 -0.3377,-0.077 -4.206,-0.6469 -8.5962,-1.2671 l -7.9821,-1.1277 -9.4149,-0.019 c -8.1415,-0.016 -17.0034,0.049 -24.0342,0.178 l -0.8187,0.015 -0.029,-8.6546 c -0.016,-4.7601 -0.021,-8.6744 -0.011,-8.6985 0.01,-0.024 7.6281,-0.035 16.9292,-0.024 l 16.9111,0.02 8.2746,0.9711 c 4.551,0.5342 8.4061,0.9972 8.5669,1.0291 0.1608,0.032 3.9328,0.8483 8.3822,1.8143 4.4494,0.966 8.3176,1.7868 8.5962,1.8239 0.2785,0.037 3.2694,0.3076 6.6464,0.601 l 6.1402,0.5335 0.018,0.3733 0.018,0.3733 -0.2223,-0.033 c -0.6595,-0.097 -12.1134,-1.0519 -12.2029,-1.0175 -0.1024,0.039 -0.1048,0.3489 -0.064,8.3004 0.023,4.5427 0.054,8.2793 0.068,8.3034 0.014,0.024 2.8132,0.044 6.2205,0.044 l 6.1952,0 0,0.4094 0,0.4093 -6.5397,0 c -3.5969,0 -6.553,-0.013 -6.5692,-0.03 z m -0.1376,-9.2361 c -0.023,-4.5366 -0.058,-8.2661 -0.078,-8.2877 -0.079,-0.084 -16.0463,-3.5063 -16.1016,-3.451 -0.035,0.035 -0.04,2.9453 -0.013,7.9624 l 0.043,7.9065 0.1228,0.053 c 0.099,0.043 15.3875,4.0678 15.7959,4.1583 0.2868,0.064 0.2755,0.4715 0.2313,-8.3419 z m -17.0007,-3.9583 c 0.012,-6.3006 0,-7.9421 -0.059,-7.9881 -0.097,-0.077 -15.8433,-1.9175 -15.9741,-1.8673 -0.096,0.037 -0.099,0.4648 -0.061,7.7727 0.022,4.2536 0.058,7.7526 0.078,7.7755 0.04,0.044 15.7634,2.2652 15.9127,2.2476 0.077,-0.01 0.089,-0.9423 0.1025,-7.9404 z m -40.9197,5.7663 c 3.8113,-0.051 6.9924,-0.1052 7.0693,-0.1214 l 0.1397,-0.029 -0.043,-7.7597 c -0.024,-4.2679 -0.055,-7.7795 -0.07,-7.8036 -0.015,-0.024 -3.5382,-0.044 -7.83,-0.044 l -7.8033,0 0,7.8847 c 0,4.3366 0.018,7.9023 0.039,7.9237 0.056,0.056 0.7929,0.052 8.4987,-0.051 z m 24.0198,-0.1534 c 0.051,-0.051 0.06,-1.9768 0.037,-7.7044 -0.017,-4.2003 -0.042,-7.6962 -0.057,-7.7687 l -0.027,-0.1318 -8.0249,0.015 -8.0248,0.015 0.022,7.7482 c 0.014,4.993 0.043,7.7743 0.08,7.8214 0.081,0.1022 15.8913,0.1077 15.9935,0.01 z m -16.4821,-19.1384 c -0.014,-0.014 -3.7089,-0.4471 -8.2112,-0.9626 -4.5022,-0.5155 -8.3042,-0.9606 -8.449,-0.9892 -0.1447,-0.028 -3.908,-0.831 -8.3628,-1.7832 -4.4548,-0.9522 -8.402,-1.7698 -8.7716,-1.8169 -0.3696,-0.047 -3.8626,-0.3569 -7.7623,-0.6882 l -7.0904,-0.6025 0,-0.3983 0,-0.3984 0.2778,0.033 c 0.4662,0.056 13.9641,1.1987 14.1592,1.1987 l 0.1824,0 0,-8.2629 c 0,-6.3486 -0.016,-8.2791 -0.07,-8.333 -0.054,-0.054 -1.7569,-0.07 -7.3097,-0.07 l -7.2395,0 0,-0.3802 0,-0.3801 7.5624,0 c 6.4746,0 7.5997,0.012 7.8214,0.085 0.3601,0.1188 15.8683,4.1506 16.5156,4.2937 0.5752,0.1272 15.9924,2.3622 16.9877,2.4627 0.4077,0.041 3.4333,0.058 9.0055,0.05 6.9955,-0.01 9.6221,-0.038 15.7889,-0.1704 4.0685,-0.087 7.7263,-0.168 8.1283,-0.1793 0.402,-0.011 0.76,0 0.7956,0.021 0.047,0.03 0.068,2.4169 0.077,8.5515 0.01,4.6807 0,8.512 -0.01,8.5141 -0.03,0.01 -3.1878,0.051 -10.0546,0.1434 -5.8148,0.078 -23.9111,0.1243 -23.974,0.061 z m 16.6964,-0.7119 c 0.084,-0.032 0.092,-0.6416 0.092,-6.301 0,-3.446 -0.017,-6.9167 -0.039,-7.7127 l -0.038,-1.4473 -8.0409,0 -8.0409,0 0.037,7.7 c 0.03,6.1481 0.052,7.7095 0.112,7.7473 0.085,0.054 15.7763,0.068 15.9172,0.014 z m 9.7997,-0.1125 c 3.6504,-0.05 6.6704,-0.1017 6.7109,-0.1157 0.059,-0.02 0.071,-1.5805 0.059,-7.7705 -0.01,-4.2597 -0.032,-7.7621 -0.053,-7.783 -0.04,-0.04 -15.3047,0.2515 -15.5316,0.2967 l -0.1315,0.026 0,6.9723 c 0,3.8348 0.017,7.3078 0.038,7.7179 l 0.038,0.7456 1.1166,6e-4 c 0.6142,0 4.1034,-0.04 7.7539,-0.09 z m -26.5988,-0.042 c 0.054,-0.1908 -0.042,-15.3049 -0.098,-15.3609 -0.073,-0.073 -15.8664,-2.3588 -15.9846,-2.3134 -0.072,0.028 -0.077,1.1228 -0.041,7.9394 0.023,4.3491 0.06,7.9239 0.082,7.944 0.035,0.033 15.4828,1.8408 15.8662,1.8573 0.085,0 0.164,-0.026 0.1755,-0.066 z m -16.9083,-9.8985 0,-7.925 -0.1316,-0.058 c -0.2143,-0.095 -15.8454,-4.1499 -15.9952,-4.1499 l -0.1372,0 0.018,8.2716 c 0.012,5.4145 0.038,8.2909 0.077,8.3272 0.057,0.054 15.7789,3.4385 16.0374,3.452 l 0.1316,0.01 0,-7.9249 z"
         id="path4770"
         inkscape:connector-curvature="0" />
      <rect
         y="141.29076"
         x="306.68698"
         height="107.64622"
         width="10.858315"
         id="rect4850"
         style="color:#000000;fill:#ffffff;fill-opacity:1;fill-rule:nonzero;stroke:none;stroke-width:10;marker:none;visibility:visible;display:inline;overflow:visible;enable-background:accumulate" />
      <rect
         y="141.29076"
         x="428.80588"
         height="111.41336"
         width="8.7132359"
         id="rect4852"
         style="color:#000000;fill:#ffffff;fill-opacity:1;fill-rule:nonzero;stroke:none;stroke-width:10;marker:none;visibility:visible;display:inline;overflow:visible;enable-background:accumulate" />
      <path
         style="fill:#1b71f9;fill-opacity:1"
         d="m 273.74345,165.70499 c -0.07,-0.026 -0.1558,-0.1 -0.1901,-0.1639 -0.093,-0.1735 -0.077,-0.9195 0.023,-1.1138 0.1257,-0.2432 0.1904,-0.7355 0.3234,-2.4605 0.3118,-4.0437 0.6366,-5.1292 1.6801,-5.6156 1.4101,-0.6573 1.721,-0.8624 1.803,-1.1891 0.076,-0.3025 -0.1343,-0.607 -1.1156,-1.616 -0.5161,-0.5307 -1.0194,-1.0702 -1.1186,-1.1988 -0.6271,-0.8137 -0.6378,-1.522 -0.031,-2.0893 0.3691,-0.3452 0.6596,-0.5084 1.851,-1.04 1.3915,-0.6208 1.7271,-0.8653 1.7271,-1.2581 0,-0.2944 -0.3067,-0.6954 -1.3435,-1.7563 -1.1146,-1.1405 -1.3631,-1.5213 -1.3631,-2.0882 0,-0.7845 0.485,-1.1973 2.382,-2.0277 0.4487,-0.1963 0.866,-0.4024 0.9274,-0.4579 0.1663,-0.1501 0.4134,-0.6738 0.6131,-1.2996 0.1664,-0.5214 0.3252,-1.2007 0.7713,-3.2977 0.1954,-0.9187 0.4518,-1.7499 0.6088,-1.9741 0.061,-0.088 0.094,-0.258 0.094,-0.4922 0,-0.4029 0.1,-0.5515 0.3701,-0.5515 0.2815,0 0.3901,0.1804 0.3901,0.6482 0,0.354 -0.029,0.4738 -0.2011,0.8225 -0.2055,0.4171 -0.42,1.2428 -0.8255,3.1782 -0.3734,1.7815 -0.7051,2.758 -1.1294,3.3242 -0.2313,0.3086 -0.4781,0.4527 -1.6158,0.9428 -0.8223,0.3542 -1.179,0.5576 -1.4262,0.8134 -0.1749,0.1808 -0.1946,0.2322 -0.1673,0.4359 0.044,0.3318 0.212,0.5474 1.2371,1.5923 1.3339,1.3597 1.6126,1.8653 1.4081,2.5542 -0.178,0.5992 -0.6486,0.9378 -2.3331,1.6786 -1.3144,0.578 -1.7406,0.9181 -1.6427,1.3106 0.074,0.2967 0.2943,0.5706 1.2288,1.5287 1.2393,1.2705 1.4925,1.652 1.4893,2.2442 0,0.6457 -0.4503,1.0887 -1.7149,1.6997 l -0.9044,0.437 -0.154,0.3254 c -0.3575,0.7558 -0.5103,1.713 -0.733,4.5916 -0.1261,1.6301 -0.1921,2.1235 -0.3278,2.4482 -0.045,0.1087 -0.083,0.3614 -0.083,0.5615 0,0.2741 -0.025,0.3856 -0.1023,0.4518 -0.148,0.1271 -0.2605,0.1552 -0.4055,0.1013 z"
         id="path4528"
         inkscape:connector-curvature="0" />
      <path
         style="fill:#1b71f9;fill-opacity:1"
         d="m 276.81465,217.45059 c -0.1657,-0.1368 -0.2692,-0.6845 -0.2205,-1.1659 0.057,-0.5618 0.4902,-2.4928 0.7101,-3.164 0.3579,-1.0926 0.8229,-1.8111 1.3314,-2.0573 0.1383,-0.067 0.5524,-0.1758 0.9204,-0.242 0.3679,-0.066 0.6952,-0.1466 0.7274,-0.1787 0.082,-0.082 -0.059,-0.178 -1.1349,-0.7765 -1.3997,-0.7787 -1.7278,-1.0637 -1.7278,-1.5005 0,-0.4834 0.4526,-0.72 1.7809,-0.9311 1.087,-0.1727 1.6543,-0.2878 1.7142,-0.3477 0.067,-0.067 -0.2755,-0.2944 -1.2757,-0.8486 -1.3342,-0.7393 -1.6696,-1.0615 -1.5834,-1.521 0.076,-0.4049 0.5174,-0.6243 1.6333,-0.8116 0.4318,-0.072 0.8273,-0.1669 0.8789,-0.2097 0.1089,-0.09 0.3367,-0.7793 0.4681,-1.4155 0.2554,-1.2366 0.5037,-3.4401 0.5037,-4.4709 0,-0.4475 0.027,-0.844 0.062,-0.9094 0.1469,-0.2744 0.6048,-0.2404 0.6778,0.05 0.068,0.2703 -0.028,2.3909 -0.1501,3.3187 -0.3343,2.5421 -0.6343,3.6591 -1.0906,4.0596 -0.1469,0.1291 -0.29,0.1833 -0.6199,0.2351 -0.762,0.1196 -1.3633,0.2444 -1.4133,0.2931 -0.073,0.071 0.2486,0.291 1.1598,0.7937 0.9252,0.5104 1.0892,0.6149 1.3646,0.8702 0.4024,0.373 0.451,0.7207 0.1455,1.0396 -0.2132,0.2224 -0.7048,0.3708 -1.8024,0.5439 -1.2811,0.2021 -1.5013,0.2566 -1.4796,0.3666 0.01,0.049 0.2939,0.2464 0.6316,0.438 0.3377,0.1916 0.8246,0.4674 1.0819,0.6129 0.83,0.4694 1.1403,0.79 1.1403,1.1781 0,0.4038 -0.461,0.6835 -1.4035,0.8516 -0.3055,0.054 -0.6142,0.1109 -0.686,0.1253 -0.1986,0.04 -0.5187,0.3497 -0.7136,0.6905 -0.2509,0.4385 -0.5437,1.364 -0.8254,2.6089 -0.2121,0.9376 -0.2441,1.1687 -0.2398,1.7341 0.01,0.6916 -0.012,0.7393 -0.2876,0.8085 -0.1017,0.025 -0.1906,0 -0.2778,-0.068 z"
         id="path4522"
         inkscape:connector-curvature="0" />
      <path
         inkscape:connector-curvature="0"
         id="path4691"
         d="m 380.26085,188.80369 c -0.074,-0.01 -0.1746,-0.061 -0.2227,-0.1157 -0.1304,-0.1474 -0.2872,-0.8769 -0.2342,-1.0891 0.066,-0.2656 0.016,-0.7597 -0.2523,-2.4688 -0.6286,-4.0067 -0.5627,-5.1379 0.3406,-5.8517 1.2206,-0.9646 1.4759,-1.2357 1.4804,-1.5726 0,-0.3118 -0.2705,-0.5596 -1.458,-1.3154 -0.6245,-0.3975 -1.2386,-0.8064 -1.3648,-0.9087 -0.7978,-0.6473 -0.9714,-1.3341 -0.512,-2.0258 0.2796,-0.421 0.5247,-0.6468 1.5615,-1.4386 1.2109,-0.9248 1.4812,-1.24 1.3906,-1.6223 -0.068,-0.2865 -0.4588,-0.606 -1.7121,-1.3994 -1.3474,-0.8529 -1.6771,-1.1662 -1.8077,-1.7178 -0.1808,-0.7633 0.196,-1.2769 1.8506,-2.5221 0.3913,-0.2945 0.7499,-0.5911 0.7969,-0.6593 0.1273,-0.1844 0.2469,-0.751 0.297,-1.4059 0.042,-0.5458 0.04,-1.2433 -0.01,-3.3867 -0.022,-0.939 0.036,-1.8069 0.1375,-2.0613 0.04,-0.099 0.032,-0.2727 -0.022,-0.5005 -0.093,-0.3921 -0.03,-0.5598 0.233,-0.6221 0.274,-0.065 0.4213,0.086 0.5291,0.5409 0.082,0.3445 0.081,0.4678 -0.01,0.8468 -0.1039,0.4532 -0.1223,1.306 -0.071,3.2828 0.047,1.8196 -0.05,2.8462 -0.3328,3.495 -0.1539,0.3536 -0.361,0.5507 -1.3551,1.2898 -0.7185,0.5342 -1.0186,0.8143 -1.2003,1.1202 -0.1285,0.2163 -0.1358,0.2708 -0.062,0.4628 0.1198,0.3125 0.3324,0.4837 1.5708,1.2643 1.6113,1.0156 1.9991,1.4434 1.9588,2.1609 -0.035,0.6241 -0.415,1.062 -1.8834,2.171 -1.1458,0.8655 -1.4822,1.2946 -1.2964,1.654 0.1404,0.2716 0.4178,0.4874 1.548,1.2044 1.4987,0.9507 1.833,1.2636 1.9664,1.8405 0.1455,0.6291 -0.1873,1.1631 -1.277,2.0492 l -0.7794,0.6337 -0.075,0.3521 c -0.1737,0.8178 -0.1018,1.7845 0.345,4.6369 0.253,1.6153 0.3024,2.1106 0.2452,2.4578 -0.019,0.1163 0,0.3707 0.049,0.5655 0.063,0.2667 0.064,0.381 0,0.4632 -0.1147,0.1578 -0.2177,0.211 -0.3712,0.192 z"
         style="fill:#1b71f9;fill-opacity:1" />
      <path
         inkscape:connector-curvature="0"
         id="path4848"
         d="m 379.97445,233.02769 c -0.1898,-0.1007 -0.4015,-0.6163 -0.4507,-1.0977 -0.057,-0.5617 -0.022,-2.5405 0.059,-3.2421 0.1307,-1.1424 0.4415,-1.9397 0.89,-2.2832 0.122,-0.093 0.5057,-0.2835 0.8528,-0.4224 0.3471,-0.1389 0.6515,-0.2836 0.6766,-0.3215 0.064,-0.096 -0.094,-0.1624 -1.268,-0.5321 -1.5278,-0.481 -1.9066,-0.6941 -1.9946,-1.1219 -0.097,-0.4735 0.2984,-0.7964 1.557,-1.2706 1.0301,-0.3881 1.5625,-0.615 1.6092,-0.6857 0.052,-0.079 -0.3291,-0.2329 -1.4204,-0.5744 -1.4558,-0.4556 -1.8492,-0.7037 -1.8572,-1.1711 -0.01,-0.4119 0.3811,-0.7156 1.4364,-1.1238 0.4083,-0.158 0.7767,-0.33 0.8187,-0.3824 0.088,-0.1104 0.1729,-0.8311 0.1735,-1.4807 0,-1.2627 -0.1992,-3.4711 -0.4067,-4.4808 -0.09,-0.4383 -0.1434,-0.8321 -0.1223,-0.9032 0.089,-0.2984 0.544,-0.3573 0.674,-0.087 0.1209,0.2511 0.4539,2.3476 0.5212,3.281 0.1843,2.5573 0.1153,3.7118 -0.251,4.196 -0.1179,0.156 -0.2472,0.238 -0.5599,0.3551 -0.7223,0.2706 -1.2862,0.5138 -1.3254,0.5717 -0.057,0.084 0.3022,0.2349 1.2959,0.5438 1.009,0.3137 1.1906,0.3831 1.5119,0.5777 0.4692,0.2843 0.5868,0.6151 0.3517,0.989 -0.164,0.2608 -0.6157,0.5051 -1.656,0.8957 -1.2142,0.4558 -1.4188,0.5536 -1.3755,0.657 0.019,0.046 0.3376,0.1821 0.7069,0.3018 0.3694,0.1197 0.9018,0.2918 1.1831,0.3825 0.9076,0.2928 1.276,0.5443 1.3542,0.9245 0.081,0.3955 -0.3139,0.7623 -1.2033,1.1166 -0.2883,0.1149 -0.5794,0.2323 -0.6468,0.2609 -0.1864,0.079 -0.4376,0.447 -0.56,0.82 -0.1575,0.4801 -0.2579,1.4456 -0.2832,2.7217 -0.019,0.9611 0,1.194 0.1142,1.7469 0.1443,0.6764 0.1373,0.7265 -0.119,0.8498 -0.094,0.046 -0.1859,0.042 -0.2858,-0.011 z"
         style="fill:#1b71f9;fill-opacity:1" />
    </g>
  </g>
</svg>
