<?xml version="1.0" encoding="UTF-8" standalone="no"?>
<!-- Created with Inkscape (http://www.inkscape.org/) -->

<svg
   xmlns:dc="http://purl.org/dc/elements/1.1/"
   xmlns:cc="http://creativecommons.org/ns#"
   xmlns:rdf="http://www.w3.org/1999/02/22-rdf-syntax-ns#"
   xmlns:svg="http://www.w3.org/2000/svg"
   xmlns="http://www.w3.org/2000/svg"
   xmlns:xlink="http://www.w3.org/1999/xlink"
   xmlns:sodipodi="http://sodipodi.sourceforge.net/DTD/sodipodi-0.dtd"
   xmlns:inkscape="http://www.inkscape.org/namespaces/inkscape"
   width="3941.4287"
   height="2227.6191"
   id="svg2"
   version="1.1"
   inkscape:version="0.48.0 r9654"
   sodipodi:docname="New_Constraints.pdf">
  <defs
     id="defs4" />
  <sodipodi:namedview
     id="base"
     pagecolor="#ffffff"
     bordercolor="#666666"
     borderopacity="1.0"
     inkscape:pageopacity="0.0"
     inkscape:pageshadow="2"
     inkscape:zoom="0.26388889"
     inkscape:cx="2021.33"
     inkscape:cy="1247.2082"
     inkscape:document-units="px"
     inkscape:current-layer="layer1"
     showgrid="false"
     fit-margin-top="0"
     fit-margin-left="0"
     fit-margin-right="0"
     fit-margin-bottom="0"
     inkscape:window-width="1918"
     inkscape:window-height="1144"
     inkscape:window-x="0"
     inkscape:window-y="38"
     inkscape:window-maximized="0"
     inkscape:snap-grids="false"
     inkscape:snap-to-guides="false" />
  <metadata
     id="metadata7">
    <rdf:RDF>
      <cc:Work
         rdf:about="">
        <dc:format>image/svg+xml</dc:format>
        <dc:type
           rdf:resource="http://purl.org/dc/dcmitype/StillImage" />
        <dc:title></dc:title>
      </cc:Work>
    </rdf:RDF>
  </metadata>
  <g
     inkscape:label="Layer 1"
     inkscape:groupmode="layer"
     id="layer1"
     transform="translate(1501.4286,743.35205)">
    <path
       style="fill:#e6574b;fill-opacity:1;stroke:none"
       d="m -1504.2857,835.69565 c 96.5385,1.39139 190.7703,-36.05827 287.6339,-20.12794 62.7028,12.89661 119.7578,-22.66381 181.2862,-27.40682 66.68519,-12.81544 124.92575,-53.86027 195.72867,-53.55844 48.54824,-10.71072 96.45449,-29.76457 147.86477,-28.7004 70.32176,-5.63398 127.43175,-14.89303 193.39688,-39.9328 52.24923,-10.07641 106.71984,-37.57488 157.98243,-34.62055 55.87539,-9.78285 106.20787,16.50297 136.22067,63.25608 39.76525,42.83931 38.39026,101.9053 40.02073,156.28982 -0.39658,53.9545 -35.3808,110.77724 -76.52462,152.5523 -61.69494,49.262 -94.09446,73.0872 -161.01752,81.4872 -57.53638,22.6291 -122.85804,13.5084 -178.39543,42.7006 -55.61076,19.2268 -138.83834,-1.4699 -194.19672,19.4896 -51.83807,13.7966 -86.09468,2.4102 -134.23812,31.6858 -59.62125,28.0021 -124.02774,42.3176 -189.63754,47.0336 -83.9952,11.7952 -168.058,35.5938 -253.5416,21.6948 -58.6036,-0.1853 -117.9122,-2.4978 -175.7557,0.1784 -27.9481,-60.0444 -45.522,-128.3784 -54.3681,-195.0027 -0.01,-56.0022 -8.6506,-115.56019 6.031,-169.47845 17.3663,-24.11134 53.8016,-22.8371 71.5101,-47.5401 z"
       id="path4648"
       inkscape:connector-curvature="0"
       sodipodi:nodetypes="cccccccccccccccccccc" />
    <path
       style="fill:#e6574b;fill-opacity:1;stroke:none"
       d="m -1477.5316,-252.63066 c 74.8495,9.46216 150.7198,3.95186 225.781,11.89962 59.6874,-2.32728 119.212,6.92999 178.7032,4.36192 96.75891,-17.9836 193.89999,-43.97685 293.28617,-33.32802 89.00251,12.08333 179.4853,2.55358 268.41081,17.21724 64.00519,8.36608 136.66024,-9.90473 191.32716,34.25112 39.68127,31.04195 79.87443,69.20866 85.76087,122.283674 17.9461,46.132677 7.33361,98.0027033 -15.54598,140.326903 -17.10743,45.094362 -58.43771,73.889453 -100.40462,93.575143 -40.65962,7.65736 -82.53693,24.25637 -124.35822,17.35482 -50.75967,10.48802 -100.17813,-7.35009 -151.10405,-7.52717 -54.80856,0.17468 -108.33203,-4.99575 -162.22443,-13.53384 -55.0045,-3.23824 -112.72851,-11.26588 -164.2563,13.92065 -49.01051,16.50099 -101.79111,19.00898 -153.17221,22.27578 -60.1657,-0.81075 -118.2643,-21.7905 -178.8764,-19.81997 -49.4579,0.72957 -98.4361,-1.07094 -147.4509,-7.37588 -38.1118,-4.30966 -109.4047,18.16195 -104.8341,-43.673541 -17.2277,-97.5970917 -15.4836,-197.57461 -0.6573,-295.268899 2.9896,-50.85045 5.5594,-67.21944 59.6153,-56.93955 z"
       id="path4530"
       inkscape:connector-curvature="0" />
    <path
       style="fill:none;stroke:#000000;stroke-width:29.20000076;stroke-linecap:butt;stroke-linejoin:miter;stroke-miterlimit:4;stroke-opacity:1;stroke-dasharray:none"
       d="m 255.00515,-528.57826 0,1798.07156"
       id="path3405"
       inkscape:connector-curvature="0" />
    <text
       xml:space="preserve"
       style="font-size:36px;font-style:normal;font-variant:normal;font-weight:normal;font-stretch:normal;line-height:125%;letter-spacing:0px;word-spacing:0px;fill:#000000;fill-opacity:1;stroke:none;font-family:Oswald;-inkscape-font-specification:Oswald"
       x="-1472.7894"
       y="-336.58057"
       id="text4175"
       sodipodi:linespacing="125%"><tspan
         sodipodi:role="line"
         id="tspan4177"
         x="-1472.7894"
         y="-336.58057"
         style="font-size:144px;font-style:normal;font-variant:normal;font-weight:normal;font-stretch:normal;font-family:DejaVu Sans Mono;-inkscape-font-specification:DejaVu Sans Mono">A1</tspan></text>
    <text
       sodipodi:linespacing="125%"
       id="text4179"
       y="705.00079"
       x="-1472.7894"
       style="font-size:36px;font-style:normal;font-variant:normal;font-weight:normal;font-stretch:normal;line-height:125%;letter-spacing:0px;word-spacing:0px;fill:#000000;fill-opacity:1;stroke:none;font-family:Oswald;-inkscape-font-specification:Oswald"
       xml:space="preserve"><tspan
         style="font-size:144px;font-style:normal;font-variant:normal;font-weight:normal;font-stretch:normal;font-family:DejaVu Sans Mono;-inkscape-font-specification:DejaVu Sans Mono"
         y="705.00079"
         x="-1472.7894"
         id="tspan4181"
         sodipodi:role="line">A2</tspan></text>
    <text
       xml:space="preserve"
       style="font-size:36px;font-style:normal;font-variant:normal;font-weight:normal;font-stretch:normal;line-height:125%;letter-spacing:0px;word-spacing:0px;fill:#000000;fill-opacity:1;stroke:none;font-family:Oswald;-inkscape-font-specification:Oswald"
       x="555.25421"
       y="-72.151642"
       id="text4183"
       sodipodi:linespacing="125%"><tspan
         sodipodi:role="line"
         id="tspan4185"
         x="555.25421"
         y="-72.151642"
         style="font-size:144px;font-style:normal;font-variant:normal;font-weight:normal;font-stretch:normal;font-family:DejaVu Sans Mono;-inkscape-font-specification:DejaVu Sans Mono">B1</tspan></text>
    <text
       sodipodi:linespacing="125%"
       id="text4187"
       y="824.57593"
       x="555.25421"
       style="font-size:36px;font-style:normal;font-variant:normal;font-weight:normal;font-stretch:normal;line-height:125%;letter-spacing:0px;word-spacing:0px;fill:#000000;fill-opacity:1;stroke:none;font-family:Oswald;-inkscape-font-specification:Oswald"
       xml:space="preserve"><tspan
         style="font-size:144px;font-style:normal;font-variant:normal;font-weight:normal;font-stretch:normal;font-family:DejaVu Sans Mono;-inkscape-font-specification:DejaVu Sans Mono"
         y="824.57593"
         x="555.25421"
         id="tspan4189"
         sodipodi:role="line">B2</tspan></text>
    <rect
       style="color:#000000;fill:none;stroke:#868686;stroke-width:10.86649418000000011;stroke-miterlimit:4;stroke-opacity:1;stroke-dasharray:none;marker:none;visibility:visible;display:inline;overflow:visible;enable-background:accumulate"
       id="rect4416"
       width="267.38593"
       height="268.12125"
       x="-1507.5255"
       y="-306.12683" />
    <rect
       y="-306.12683"
       x="-1240.3827"
       height="268.12125"
       width="267.38593"
       id="rect4418"
       style="color:#000000;fill:none;stroke:#868686;stroke-width:10.86649418000000011;stroke-miterlimit:4;stroke-opacity:1;stroke-dasharray:none;marker:none;visibility:visible;display:inline;overflow:visible;enable-background:accumulate" />
    <rect
       style="color:#000000;fill:none;stroke:#868686;stroke-width:10.86649418000000011;stroke-miterlimit:4;stroke-opacity:1;stroke-dasharray:none;marker:none;visibility:visible;display:inline;overflow:visible;enable-background:accumulate"
       id="rect4420"
       width="267.38593"
       height="268.12125"
       x="-966.09698"
       y="-306.12683" />
    <rect
       y="-306.12683"
       x="-691.81128"
       height="268.12125"
       width="267.38593"
       id="rect4422"
       style="color:#000000;fill:none;stroke:#868686;stroke-width:10.86649418000000011;stroke-miterlimit:4;stroke-opacity:1;stroke-dasharray:none;marker:none;visibility:visible;display:inline;overflow:visible;enable-background:accumulate" />
    <rect
       style="color:#000000;fill:none;stroke:#868686;stroke-width:10.86649418000000011;stroke-miterlimit:4;stroke-opacity:1;stroke-dasharray:none;marker:none;visibility:visible;display:inline;overflow:visible;enable-background:accumulate"
       id="rect4424"
       width="267.38593"
       height="268.12125"
       x="-417.52557"
       y="-306.12683" />
    <rect
       y="-36.126831"
       x="-1508.9541"
       height="268.12125"
       width="267.38593"
       id="rect4426"
       style="color:#000000;fill:none;stroke:#868686;stroke-width:10.86649418000000011;stroke-miterlimit:4;stroke-opacity:1;stroke-dasharray:none;marker:none;visibility:visible;display:inline;overflow:visible;enable-background:accumulate" />
    <rect
       style="color:#000000;fill:none;stroke:#868686;stroke-width:10.86649418000000011;stroke-miterlimit:4;stroke-opacity:1;stroke-dasharray:none;marker:none;visibility:visible;display:inline;overflow:visible;enable-background:accumulate"
       id="rect4428"
       width="267.38593"
       height="268.12125"
       x="-1241.8113"
       y="-36.126831" />
    <rect
       y="-36.126831"
       x="-967.52557"
       height="268.12125"
       width="267.38593"
       id="rect4430"
       style="color:#000000;fill:none;stroke:#868686;stroke-width:10.86649418000000011;stroke-miterlimit:4;stroke-opacity:1;stroke-dasharray:none;marker:none;visibility:visible;display:inline;overflow:visible;enable-background:accumulate" />
    <rect
       style="color:#000000;fill:none;stroke:#868686;stroke-width:10.86649418000000011;stroke-miterlimit:4;stroke-opacity:1;stroke-dasharray:none;marker:none;visibility:visible;display:inline;overflow:visible;enable-background:accumulate"
       id="rect4432"
       width="267.38593"
       height="268.12125"
       x="-693.23987"
       y="-36.126831" />
    <rect
       y="-36.126831"
       x="-418.95413"
       height="268.12125"
       width="267.38593"
       id="rect4434"
       style="color:#000000;fill:none;stroke:#868686;stroke-width:10.86649418000000011;stroke-miterlimit:4;stroke-opacity:1;stroke-dasharray:none;marker:none;visibility:visible;display:inline;overflow:visible;enable-background:accumulate" />
    <path
       inkscape:connector-curvature="0"
       id="path4642"
       d="m -1511.6754,1322.2398 c -1.1829,-1.1829 -0.7909,-546.13845 0.3933,-546.87045 0.5831,-0.3603 70.6706,-8.0361 155.7501,-17.0574 l 154.6899,-16.4023 140.5,-20.5642 c 127.80163,-18.7057 152.50013,-22.6413 273.27373,-43.5456 l 132.7737,-22.9813 141.7263,-35.36557 141.7263,-35.3656 125.8918,-25.17004 c 99.0075,-19.79496 126.063,-24.89293 126.6937,-23.87243 0.4411,0.71369 1.0952,4.23701 1.4536,7.82961 1.1851,11.88012 31.316202,248.11783 34.377702,269.53203 3.9436,27.5851 38.7245,255.42765 40.054,262.38635 1.8674,9.7737 1.8634,9.7821 -5.7208,12.0253 -3.7125,1.098 -72.225002,20.265 -152.250002,42.5934 l -145.5,40.5971 -143.0662,30.9173 -143.0662,30.9174 -144.9338,22.5352 -144.9338,22.5352 -152.50003,18.9634 -152.5,18.9633 -138.5,4.0425 c -152.7005,4.457 -145.4007,4.2895 -146.3333,3.3568 z m 155.3261,-14.9162 c 66.821,-1.9265 121.8405,-3.8504 122.2656,-4.2755 1.2832,-1.2832 9.3035,-239.9798 8.1037,-241.1795 -1.1421,-1.1421 -269.0162,-6.6925 -271.7814,-5.6314 -1.4294,0.5485 -1.5807,12.7546 -1.5807,127.5545 0,100.6532 0.2589,127.0408 1.25,127.3955 0.6875,0.2461 5.525,0.2656 10.75,0.043 5.225,-0.2223 64.1718,-1.9804 130.9928,-3.9069 z m 280.5072,-22.4005 c 75.35,-9.3326 138.43713,-17.2198 140.19363,-17.5272 1.8175,-0.3181 3.4069,-1.298 3.6885,-2.2742 1.1403,-3.9528 14.8761,-251.3569 14.0037,-252.2294 -1.1489,-1.1489 -291.16803,46.3966 -292.76823,47.9962 -1.1209,1.1205 -10.0665,238.0109 -9.0938,240.8158 0.302,0.8707 1.5237,1.115 3.7131,0.7424 1.7947,-0.3054 64.9131,-8.1911 140.2631,-17.5236 z m 298.27103,-42.0931 c 74.651,-11.5921 136.2534,-21.6045 136.8943,-22.25 1.5596,-1.5705 6.1635,-242.24475 4.6627,-243.74555 -1.3225,-1.3224 -264.3484,31.69955 -265.9487,33.38895 -0.7306,0.7713 -3.6143,44.5245 -8.2834,125.6831 -3.9395,68.475 -7.1477,125.2875 -7.1293,126.25 0.021,1.0783 0.809,1.75 2.0544,1.75 1.1116,0 63.0991,-9.4844 137.75,-21.0765 z m 287.4418,-52.9472 c 73.8448,-15.9631 134.8049,-29.5756 135.467,-30.25 1.6694,-1.7006 -1.3305,-244.66335 -3.0417,-246.34435 -0.8411,-0.8263 -35.1965,6.8187 -131.6381,29.2931 -71.775,16.7262 -131.0209,30.9544 -131.6576,31.6181 -0.8362,0.8718 -1.7433,32.29795 -3.2677,113.20685 -2.4033,127.5575 -2.4363,131.5 -1.0998,131.5 0.5361,0 61.3932,-13.0607 135.2379,-29.0237 z m 293.4219,-73.0175 c 76.9162,-21.4727 140.243702,-39.4372 140.727702,-39.9213 0.9567,-0.9566 -37.988203,-258.99365 -39.292703,-260.34175 -0.7503,-0.7754 -245.658999,90.4936 -247.340799,92.1754 -0.4553,0.4552 -0.1305,52.654 0.7217,115.99745 0.8522,63.3432 1.5494,118.761 1.5494,123.1505 0,7.1646 0.1937,7.9809 1.8935,7.9809 1.0414,0 64.8249,-17.5686 141.7412,-39.0412 z m -1028.79303,-70.268 c 0.6866,-0.8273 3.9138,-54.41865 8.7679,-145.60105 8.3784,-157.3868 8.2382,-146.5894 1.8904,-145.5793 -1.65,0.2625 -65.1,7.0103 -141,14.995 -75.9,7.9846 -139.0058,14.7443 -140.235,15.0214 l -2.235,0.5037 -0.265,127.2348 c -0.1458,69.979 0.079,127.66855 0.4992,128.19885 0.4643,0.5859 52.8447,2.0022 133.5,3.6099 73.0047,1.455 133.9182,2.7087 135.3634,2.7857 1.4451,0.077 3.1165,-0.4489 3.7141,-1.169 z m 163.1583,-24.252 c 79.47503,-13.0233 144.91053,-24.05775 145.41223,-24.52105 1.3827,-1.2766 -7.3062,-281.2242 -8.7565,-282.1261 -0.6265,-0.3896 -2.0428,-0.509 -3.1474,-0.2653 -2.333,0.5149 -261.76723,38.4661 -263.10993,38.489 -3.5626,0.061 -3.4964,-0.7917 -11.3562,146.1159 -4.7397,88.5912 -7.3708,144.82875 -6.8099,145.55935 0.5026,0.6548 1.4435,1.0188 2.0908,0.8088 0.6473,-0.21 66.2019,-11.0373 145.6769,-24.0606 z m 294.48073,-42.91535 c 71.9799,-9.0621 131.2945,-16.8986 131.8103,-17.4144 0.5838,-0.5838 -3.9188,-55.6165 -11.9266,-145.7735 l -12.8644,-144.8355 -2.5,-0.2897 c -3.1134,-0.3606 -246.194,41.6338 -247.3153,42.7261 -0.7501,0.7307 7.027,277.9853 7.8769,280.8136 0.2066,0.6875 1.2016,1.25 2.2112,1.25 1.0095,0 60.7281,-7.4145 132.7079,-16.4766 z m 277.9461,-49.993 c 72.0018,-16.7583 131.2607,-30.8208 131.6864,-31.25 0.5354,-0.5399 -18.2815,-293.91436 -19.0514,-297.03044 -0.034,-0.1375 -0.9631,-0.25 -2.0646,-0.25 -2.8526,0 -267.3087,66.10964 -268.404,67.09654 -0.8179,0.737 23.7783,285.7119 25.0432,290.1535 0.2741,0.9625 0.8088,1.75 1.1882,1.75 0.3794,0 59.6004,-13.7114 131.6022,-30.4696 z m 269.2882,-81.1248 c 66.9817,-25.0768 122.412499,-46.1954 123.179499,-46.9302 1.1897,-1.1397 -0.9079,-19.5138 -14.287799,-125.1556 -8.6253,-68.10093 -16.1016,-124.82347 -16.6141,-126.05013 -0.5125,-1.22666 -1.5079,-2.04429 -2.2122,-1.81697 -0.7042,0.22733 -52.7174,10.62863 -115.5847,23.114 -75.7336,15.04058 -114.9734,23.24609 -116.2869,24.31697 -1.9707,1.60658 -1.925,2.49329 7.6127,147.61633 5.2774,80.3 9.8026,147.0125 10.0559,148.25 0.2534,1.2375 0.8864,2.25 1.4066,2.25 0.5203,0 55.7492,-20.5175 122.731,-45.5944 z"
       style="fill:#868686;fill-opacity:1;stroke:#868686;stroke-opacity:1" />
    <rect
       style="color:#000000;fill:#ffffff;fill-opacity:1;fill-rule:nonzero;stroke:none;stroke-width:29.20000076;marker:none;visibility:visible;display:inline;overflow:visible;enable-background:accumulate"
       id="rect4191"
       width="112.77306"
       height="1937.6654"
       x="-1611.5519"
       y="-473.60138" />
    <path
       style="fill:#e6574b;fill-opacity:1;stroke:none"
       d="m 515.7143,-476.01862 c 77.89746,-15.97655 148.68696,-2.95483 226.87483,3.86332 54.81195,3.60035 118.11643,-16.12882 172.73503,-5.81191 59.98259,7.68235 121.01434,21.14848 181.03364,5.62047 41.1977,-7.42369 96.3623,-6.55261 145.8634,1.34029 66.5437,9.02558 127.7124,11.99669 193.7642,-4.94259 41.9867,-5.43057 90.459,26.52736 140.7562,4.6254 58.0678,-13.68941 140.926,-16.14677 198.1914,1.81067 48.9956,-3.91344 90.244,-4.76323 109.8082,68.68942 10.1873,41.71827 -0.3954,80.40628 -36.3139,109.09855 -49.8025,42.53392 -131.154,-5.61479 -154.9838,5.69756 -100.8075,-5.89546 -105.9284,15.6291 -161.6805,16.73073 -65.4456,-16.24692 -93.5217,-16.92125 -146.0426,-0.42653 -75.2514,2.62441 -150.0027,-16.93847 -259.3528,-10.27297 -91.1238,12.55047 -79.2958,12.45014 -179.46578,2.85759 -93.15084,-23.9324 -152.61341,9.38121 -237.61321,-4.77447 -87.17819,-10.11584 -107.08051,-10.38123 -159.8951,-6.23343 -31.76297,7.18336 -71.93648,15.51208 -65.63709,-38.57505 -16.34707,-49.79943 -31.14442,-118.44781 24.81498,-147.86848 -5.62208,3.93429 6.72048,-1.79605 7.1429,-1.42857 z"
       id="path4693"
       inkscape:connector-curvature="0"
       sodipodi:nodetypes="cccccccccccccccccccc" />
    <path
       style="fill:#e6574b;fill-opacity:1;stroke:none"
       d="m 2432.8571,318.26709 c -58.0174,9.44831 -144.3409,-16.67372 -219.1103,-10.53394 -97.6284,16.2343 -110.3582,-0.44174 -165.8897,0.1768 -47.5502,-10.24705 -102.5697,-15.78093 -151.2915,-1.69698 -57.8199,6.30873 -124.9293,7.08385 -182.9369,-8.41433 -43.0721,-4.47713 -73.3713,-3.0798 -117.0841,4.46476 -57.3512,14.10294 -92.7432,2.96369 -141.6492,-4.32101 -72.0378,16.81517 -170.2107,23.0356 -243.1202,4.66702 -62.5209,3.51833 -77.6569,-11.59925 -97.0535,-60.72265 -9.9944,-47.56477 -1.2031,-101.01692 48.653,-129.35699 48.9076,-10.73449 103.6806,6.43729 153.6482,7.78953 46.9508,-4.86919 112.2316,-15.89998 142.9055,-19.29488 53.3737,4.41956 75.1184,23.84664 125.4454,5.68885 54.1598,-6.98974 134.8183,-7.83319 187.4833,7.26811 67.5878,-0.85989 97.3869,5.52109 156.8915,-10.74299 54.2858,-9.61839 165.5449,19.37375 190.731,16.9824 46.0849,-3.87709 86.8679,-12.32325 134.1475,-7.61917 71.6625,-2.79458 116.1357,22.91473 185.1987,7.9024 49.2688,-21.07719 52.1937,55.89774 51.0989,89.85991 12.0553,43.82154 65.6957,129.00403 -4.4821,98.37853 z"
       id="path4697"
       inkscape:connector-curvature="0"
       sodipodi:nodetypes="ccccccccccccccccccccc" />
    <g
       id="g4672"
       transform="translate(36.365492,214)"
       style="stroke:#868686;stroke-opacity:1">
      <rect
         inkscape:tile-y0="20.247253"
         inkscape:tile-x0="3144.6965"
         inkscape:tile-h="273.51877"
         inkscape:tile-w="280.52679"
         inkscape:tile-cy="157.00664"
         inkscape:tile-cx="3284.9599"
         y="-723.1048"
         x="485.63312"
         height="273.51877"
         width="280.52679"
         id="rect4660"
         style="color:#000000;fill:none;stroke:#868686;stroke-width:10.35672568999999932;stroke-opacity:1;marker:none;visibility:visible;display:inline;overflow:visible;enable-background:accumulate" />
      <use
         height="2227.6191"
         width="3941.4287"
         id="use4664"
         transform="translate(280.52679,0)"
         xlink:href="#rect4660"
         inkscape:tiled-clone-of="#rect4660"
         y="0"
         x="0"
         style="stroke:#868686;stroke-opacity:1" />
      <use
         height="2227.6191"
         width="3941.4287"
         id="use4666"
         transform="translate(561.05359,0)"
         xlink:href="#rect4660"
         inkscape:tiled-clone-of="#rect4660"
         y="0"
         x="0"
         style="stroke:#868686;stroke-opacity:1" />
      <use
         height="2227.6191"
         width="3941.4287"
         id="use4668"
         transform="translate(841.58038,0)"
         xlink:href="#rect4660"
         inkscape:tiled-clone-of="#rect4660"
         y="0"
         x="0"
         style="stroke:#868686;stroke-opacity:1" />
      <use
         height="2227.6191"
         width="3941.4287"
         id="use4670"
         transform="translate(1122.1072,0)"
         xlink:href="#rect4660"
         inkscape:tiled-clone-of="#rect4660"
         y="0"
         x="0"
         style="stroke:#868686;stroke-opacity:1" />
    </g>
    <g
       transform="translate(585.88848,789.78695)"
       id="g4679"
       style="stroke:#868686;stroke-opacity:1">
      <rect
         style="color:#000000;fill:none;stroke:#868686;stroke-width:10.35672568999999932;stroke-opacity:1;marker:none;visibility:visible;display:inline;overflow:visible;enable-background:accumulate"
         id="rect4681"
         width="280.52679"
         height="273.51877"
         x="485.63312"
         y="-723.1048"
         inkscape:tile-cx="3284.9599"
         inkscape:tile-cy="157.00664"
         inkscape:tile-w="280.52679"
         inkscape:tile-h="273.51877"
         inkscape:tile-x0="3144.6965"
         inkscape:tile-y0="20.247253" />
      <use
         x="0"
         y="0"
         inkscape:tiled-clone-of="#rect4660"
         xlink:href="#rect4660"
         transform="translate(280.52679,0)"
         id="use4683"
         width="3941.4287"
         height="2227.6191"
         style="stroke:#868686;stroke-opacity:1" />
      <use
         x="0"
         y="0"
         inkscape:tiled-clone-of="#rect4660"
         xlink:href="#rect4660"
         transform="translate(561.05359,0)"
         id="use4685"
         width="3941.4287"
         height="2227.6191"
         style="stroke:#868686;stroke-opacity:1" />
      <use
         x="0"
         y="0"
         inkscape:tiled-clone-of="#rect4660"
         xlink:href="#rect4660"
         transform="translate(841.58038,0)"
         id="use4687"
         width="3941.4287"
         height="2227.6191"
         style="stroke:#868686;stroke-opacity:1" />
      <use
         x="0"
         y="0"
         inkscape:tiled-clone-of="#rect4660"
         xlink:href="#rect4660"
         transform="translate(1122.1072,0)"
         id="use4689"
         width="3941.4287"
         height="2227.6191"
         style="stroke:#868686;stroke-opacity:1" />
    </g>
    <path
       inkscape:connector-curvature="0"
       id="path4842"
       d="m 2371.908,1176.2727 c -14.6208,-0.615 -31.3218,-2.5297 -46.5,-5.3311 -4.125,-0.7614 -13.125,-1.9013 -20,-2.5331 -6.875,-0.6319 -19.9112,-2.0402 -28.9693,-3.1297 -9.2259,-1.1097 -25.719,-2.1742 -37.5,-2.4203 -11.5669,-0.2417 -24.4057,-0.8848 -28.5307,-1.429 -4.125,-0.5443 -14.1845,-1.4503 -22.3545,-2.0133 -8.17,-0.5631 -15.145,-1.2028 -15.5,-1.4215 -0.355,-0.2187 -6.3385,-1.1311 -13.2965,-2.0276 -15.7932,-2.0347 -48.8517,-10.2392 -63.8679,-15.8508 -21.0337,-7.8603 -31.4482,-11.893 -33.3394,-12.9097 -1.178,-0.6332 -7.5417,-3.2667 -14.1417,-5.8522 -6.6,-2.5856 -15.15,-6.0968 -19,-7.8029 -20.7907,-9.2129 -53.9443,-21.7392 -66.4425,-25.1038 -22.5753,-6.0772 -26.3634,-6.4794 -46.4707,-4.9341 -25.0976,1.9288 -50.0158,1.3758 -71.0868,-1.5776 -9.35,-1.3105 -21.05,-2.8968 -26,-3.5251 -23.1804,-2.9422 -31.4203,-4.4862 -50.5,-9.4628 -11.275,-2.941 -26.575,-7.4477 -34,-10.0151 -21.7279,-7.513 -27.979,-9.2553 -37.5058,-10.4539 -13.4464,-1.6916 -20.2478,-2.6557 -39.4942,-5.5981 -16.6111,-2.5395 -18.1943,-2.6168 -31.1686,-1.5229 -14.967,1.262 -34.7017,4.4279 -53.3314,8.5556 -14.4707,3.2062 -34.2957,4.3053 -46.6645,2.587 -4.5845,-0.6369 -15.0855,-2.4723 -23.3355,-4.0788 -8.25,-1.6064 -18.825,-3.66 -23.5,-4.5634 -4.675,-0.9035 -14.1597,-1.8824 -21.0771,-2.1753 -12.2281,-0.5178 -13.0327,-0.4193 -29,3.5503 -21.7635,5.4106 -30.9359,6.9314 -52.4229,8.6915 -9.9,0.8109 -21.15,1.9939 -25,2.6288 -10.133,1.671 -73.9303,1.6995 -88.5,0.04 -14.3043,-1.6298 -38.6846,-5.6993 -46,-7.6782 -6.701,-1.8127 -13.998,-1.8907 -28.2823,-0.3023 -9.5747,1.0646 -11.8912,0.9998 -19.3826,-0.5422 -23.6598,-4.8701 -40.891,-20.1089 -51.9589,-45.951 -14.5819,-34.0467 -12.9825,-77.326 4.04,-109.3251 12.3141,-23.1481 30.6189,-38.3925 51.5838,-42.9592 4.4554,-0.9706 14.4011,-1.837 24.5,-2.1345 18.4285,-0.5427 25.6829,0.351 54,6.6526 20.9475,4.6616 27.9315,5.2958 57.1976,5.1944 21.3393,-0.074 30.2784,-0.5243 41.5,-2.0909 7.8663,-1.0983 20.1524,-2.4321 27.3024,-2.9642 9.3257,-0.694 15.8264,-1.8121 23,-3.9558 22.4915,-6.7213 35.8685,-8.6034 55.6537,-7.8306 22.1951,0.867 36.9465,3.0299 69.8463,10.2416 8.8605,1.9422 23.0052,1.5558 33,-0.9016 36.9856,-9.0933 71.5504,-11.3724 103.5,-6.8244 8.8,1.2527 19.375,2.689 23.5,3.1918 33.6636,4.1035 31.4109,3.5789 74.9585,17.4564 14.1829,4.5197 32.174,8.2091 51.0415,10.4671 5.225,0.6252 12.425,1.545 16,2.0438 19.5354,2.7258 30.1706,3.2932 49.3585,2.6334 11.0361,-0.3794 23.4577,-1.171 27.6035,-1.7589 13.2831,-1.8839 28.5651,-1.4904 37.038,0.9535 4.125,1.1898 16.05,4.3851 26.5,7.1006 18.6827,4.8548 37.0783,10.7867 48.9601,15.7877 3.3162,1.3957 11.4318,4.4729 18.0347,6.8381 32.6068,11.6799 42.2515,15.2543 45.0052,16.6794 5.2069,2.6945 25.55,8.9008 37.5,11.4405 21.7015,4.6122 27.5355,5.4295 45.5,6.3736 24.1966,1.2717 36.8656,2.5642 45.6594,4.6583 5.9196,1.4097 12.4706,1.7772 33.8406,1.8986 24.7318,0.1405 27.2006,0.3212 37,2.7072 5.775,1.4061 15.675,3.2916 22,4.1901 13.9073,1.9754 33.143,5.8542 42,8.4691 17.8983,5.2841 54.1983,9.5514 81.25,9.5514 l 14.75,0 0,99.1416 0,99.1416 -2.2918,0.5752 c -7.2031,1.8078 -40.8758,2.5762 -66.2082,1.5107 z m -1021,-466.8794 c -2.2,-0.4352 -11.65,-1.7554 -21,-2.9338 -50.1203,-6.3171 -52.438,-6.7767 -81.5,-16.1614 -25.9237,-8.3713 -36.0923,-10.7352 -57.5,-13.3673 -13.2885,-1.6339 -21.0119,-2.5776 -32.5,-3.9712 -18.8969,-2.2924 -43.1579,-1.8056 -75.4279,1.5134 -13.5259,1.3911 -16.8974,0.9702 -37.0721,-4.6285 -6.6,-1.8316 -16.725,-4.4588 -22.5,-5.8383 -11.0908,-2.6494 -36.0806,-10.8494 -44.5,-14.602 -2.75,-1.2257 -10.625,-4.1808 -17.5,-6.567 -24.7742,-8.5985 -42.5565,-15.1034 -45.5,-16.6442 -5.1773,-2.7101 -25.0812,-8.6095 -37.795,-11.2023 -22.6729,-4.6238 -30.6282,-5.6432 -51.5191,-6.6018 -21.2995,-0.9774 -31.7049,-2.0613 -43.1859,-4.4989 -3.575,-0.759 -13.7,-1.8674 -22.5,-2.4632 -21.0236,-1.4232 -31.0068,-2.7356 -42.313,-5.5623 -5.1222,-1.2806 -14.1222,-3.0682 -20,-3.9725 -14.815,-2.2793 -38.494,-7.2182 -45.687,-9.5293 -14.6111,-4.6945 -40.8704,-8.1841 -72.5,-9.6347 -13.8128,-0.6335 -34.8908,1.5991 -49.0983,5.2005 -5.3703,1.3613 -10.0201,2.4751 -10.3329,2.4751 -0.3128,0 -0.5688,-44.4613 -0.5688,-98.8028 l 0,-98.8029 11.75,-2.2103 c 16.1938,-3.0462 26.8919,-4.2152 46.8524,-5.1196 20.1546,-0.9132 54.3768,-0.4394 62.8976,0.8707 3.3,0.5074 8.925,1.2054 12.5,1.5512 3.575,0.3458 10.1,1.2442 14.5,1.9965 4.4,0.7523 13.625,1.8804 20.5,2.5069 17.8429,1.6259 48.4531,4.9237 55.5,5.9794 3.3,0.4943 10.05,1.1843 15,1.5334 4.95,0.349 13.95,1.2511 20,2.0045 6.05,0.7534 15.725,1.6536 21.5,2.0004 19.426,1.1667 49.6515,5.389 62,8.6612 32.5293,8.6196 48.5525,14.1404 86.5,29.8036 8.25,3.4052 21.5375,8.7852 29.5278,11.9555 7.9903,3.1702 15.4153,6.225 16.5,6.7884 5.0381,2.6168 30.1622,11.4754 40.0092,14.1071 23.766,6.3517 26.8018,6.6283 51.1931,4.6641 29.5512,-2.3796 43.0174,-1.7687 76.7699,3.4828 3.3,0.5135 9.6,1.4064 14,1.9843 19.823,2.6034 30.4039,4.2375 35.5,5.4823 22.896,5.593 50.4829,13.806 62.8789,18.7199 8.1267,3.2216 16.3222,5.147 29.1661,6.8522 12.2173,1.622 18.3983,2.5191 37.455,5.4362 17.9112,2.7417 25.2165,2.6561 46.9645,-0.5504 3.8695,-0.5705 9.7836,-1.4442 13.1424,-1.9416 3.3589,-0.4974 9.8839,-1.7827 14.5,-2.8562 28.4142,-6.6081 47.5957,-6.735 76.3889,-0.5056 16.9483,3.6668 42.5597,7.4088 50.7078,7.4088 6.8862,0 11.9965,-0.8305 24.0812,-3.9137 18.8437,-4.8076 36.6045,-7.6997 55.912,-9.1045 8.0833,-0.5881 17.3083,-1.5179 20.5,-2.066 5.642,-0.9691 64.9606,-2.9629 69.5242,-2.3369 1.2534,0.1719 7.904,0.8137 14.779,1.4261 17.0542,1.5193 38.6637,4.6508 49.4344,7.1637 9.2147,2.1499 10.5499,2.1586 35.6058,0.2322 33.787,-2.5977 63.3374,24.2532 73.081,66.405 2.8899,12.5018 3.6181,35.6651 1.5348,48.8189 -5.58,35.2303 -25.4537,65.2942 -50.7791,76.8159 -7.447,3.3879 -24.0453,6.5658 -37.9435,7.2646 -13.5019,0.6789 -23.6517,-0.4368 -48.9334,-5.379 -25.0324,-4.8934 -30.2778,-5.3491 -61.3933,-5.3335 -22.2976,0.011 -30.7233,0.4104 -42,1.9901 -7.7587,1.0869 -20.1817,2.4191 -27.6067,2.9605 -10.8152,0.7885 -16.1978,1.7716 -27.0652,4.9434 -33.8113,9.868 -62.6039,9.2921 -116.2648,-2.3256 -14.2324,-3.0813 -23.427,-3.2349 -35.8919,-0.5996 -32.5005,6.8712 -56.1203,10.0447 -73.7781,9.9127 -6.875,-0.051 -14.3,-0.4495 -16.5,-0.8846 z"
       style="fill:#e6574b;fill-opacity:1" />
    <path
       inkscape:connector-curvature="0"
       id="path4770"
       d="m 2215.6432,1209.6663 c -0.6603,-0.6604 -268.1447,-70.9147 -281.8286,-74.0219 -5.775,-1.3113 -71.925,-11.062 -147,-21.6684 l -136.5,-19.2842 -161,-0.3223 c -139.225,-0.2788 -290.7694,0.8441 -411,3.0452 l -14,0.2563 -0.5,-147.99997 c -0.275,-81.4 -0.3609,-148.3376 -0.1909,-148.7501 0.17,-0.4126 130.445,-0.5963 289.5,-0.4082 l 289.1909,0.3419 141.5,16.607 c 77.825,9.1339 143.75,17.0526 146.5,17.5973 2.75,0.5446 67.2533,14.5063 143.3408,31.0259 76.0874,16.5197 142.2374,30.5555 147,31.1905 4.7625,0.6351 55.9092,5.2599 113.6592,10.2773 l 105,9.1226 0.3012,6.3839 0.3013,6.3839 -3.8013,-0.5581 c -11.2787,-1.656 -207.1462,-17.9874 -208.6782,-17.3995 -1.7501,0.6716 -1.791,5.9671 -1.0964,141.94157 0.3969,77.6842 0.9173,141.5815 1.1565,141.994 0.2392,0.4125 48.1084,0.75 106.3759,0.75 l 105.941,0 0,7 0,7 -111.8333,0 c -61.5084,0 -112.0605,-0.2271 -112.3381,-0.5047 z m -2.3516,-157.944 c -0.3887,-77.5782 -0.9926,-141.35437 -1.3419,-141.72487 -1.3554,-1.4375 -274.4021,-59.9594 -275.3467,-59.0148 -0.6073,0.6073 -0.6885,50.3666 -0.222,136.16287 l 0.7351,135.2058 2.0993,0.9134 c 1.6904,0.7355 263.1358,69.562 270.1196,71.11 4.9053,1.0873 4.7118,8.0632 3.9566,-142.6524 z m -290.7234,-67.6896 c 0.2014,-107.74427 0,-135.81437 -1,-136.60127 -1.6627,-1.3137 -270.9317,-32.7898 -273.1675,-31.9318 -1.6396,0.6291 -1.6968,7.9478 -1.0404,132.9186 0.382,72.73897 0.9839,132.57367 1.3375,132.96587 0.6825,0.7569 269.5641,38.7358 272.1168,38.4358 1.3237,-0.1555 1.5298,-16.1153 1.7536,-135.7872 z m -699.7536,98.6073 c 65.175,-0.8647 119.5752,-1.7983 120.8893,-2.0746 l 2.3892,-0.5024 -0.7403,-132.69597 c -0.4073,-72.9828 -0.9465,-133.0335 -1.1983,-133.446 -0.2519,-0.4125 -60.5064,-0.75 -133.8989,-0.75 l -133.441,0 0,134.8333 c 0,74.15837 0.3,135.13337 0.6667,135.49997 0.959,0.9591 13.5588,0.8841 145.3333,-0.8643 z m 410.754,-2.623 c 0.8654,-0.8654 1.0248,-33.8034 0.6376,-131.74997 -0.2841,-71.8278 -0.7223,-131.6101 -0.974,-132.8495 l -0.4575,-2.2536 -137.23,0.2536 -137.2301,0.2535 0.382,132.5 c 0.2462,85.38277 0.7342,132.94447 1.3725,133.74997 1.385,1.7481 271.7525,1.843 273.4995,0.096 z m -281.854,-327.27927 c -0.2383,-0.2384 -63.4258,-7.6457 -140.4166,-16.4609 -76.9909,-8.8151 -142.0084,-16.4269 -144.4834,-16.915 -2.475,-0.4881 -66.8295,-14.2102 -143.00985,-30.4935 -76.1804,-16.2832 -143.6804,-30.2654 -150,-31.0714 -6.3196,-0.8061 -66.0526,-6.102 -132.7401,-11.7687 l -121.25,-10.303 0,-6.8116 0,-6.8115 4.75,0.5705 c 7.9718,0.9573 238.7943,20.4984 242.1314,20.4984 l 3.1186,0 0,-141.3 c 0,-108.5667 -0.278,-141.578 -1.2,-142.5001 -0.9204,-0.9204 -30.0444,-1.1999 -125,-1.1999 l -123.8,0 0,-6.5001 0,-6.5 129.3219,0 c 110.72,0 129.9588,0.2102 133.75,1.4608 6.1591,2.0317 271.35775,70.9784 282.42805,73.426 9.8362,2.1747 273.4799,40.395 290.5,42.1136 6.9723,0.704 58.7123,0.9929 154,0.8599 119.6271,-0.1671 164.5447,-0.6519 270,-2.9144 69.575,-1.4927 132.125,-2.8726 139,-3.0665 6.875,-0.1938 12.9971,-0.035 13.6046,0.3532 0.7962,0.5087 1.1623,41.3304 1.3115,146.2366 0.1138,80.042 0.067,145.5603 -0.1046,145.5963 -0.5091,0.1069 -54.5151,0.8769 -171.9414,2.4513 -99.4358,1.3332 -408.8943,2.1258 -409.9701,1.05 z m 285.5182,-12.1737 c 1.4288,-0.5483 1.5816,-10.9708 1.5796,-107.75 0,-58.9287 -0.2982,-118.2805 -0.6601,-131.893 l -0.6579,-24.7501 -137.5045,0 -137.5044,0 0.6385,131.6749 c 0.5097,105.1367 0.8956,131.8381 1.9145,132.4847 1.4616,0.9276 269.7858,1.1577 272.1943,0.2335 z m 167.5818,-1.9237 c 62.425,-0.8482 114.0674,-1.7385 114.7609,-1.9785 1.0077,-0.3488 1.2085,-27.0273 1,-132.8804 -0.1435,-72.8442 -0.5538,-132.7368 -0.9117,-133.0947 -0.6852,-0.6851 -261.7195,4.3021 -265.5992,5.0744 l -2.25,0.4479 0,119.231 c 0,65.5771 0.2966,124.9685 0.6543,131.981 l 0.6502,12.75 19.0957,0.01 c 10.5026,0 70.1707,-0.6882 132.5957,-1.5364 z m -454.857,-0.7193 c 0.9321,-3.2635 -0.7157,-261.7234 -1.6747,-262.682 -1.2499,-1.2496 -271.3259,-40.3367 -273.3481,-39.5607 -1.2282,0.4713 -1.3251,19.2017 -0.7026,135.7697 0.3972,74.3727 1.0282,135.504 1.4023,135.8476 0.6046,0.5552 264.7652,31.478 271.3231,31.7612 1.4537,0.063 2.8037,-0.4483 3,-1.1358 z m -289.143,-169.2715 0,-135.5214 -2.25,-0.9917 c -3.6652,-1.6155 -270.96585,-70.9654 -273.52735,-70.9654 l -2.3466,0 0.312,141.4503 c 0.2042,92.5905 0.6574,141.7787 1.312,142.401 0.98,0.9316 269.82875,58.8002 274.24995,59.0312 l 2.25,0.1175 0,-135.5215 z"
       style="fill:#868686;stroke:#868686;stroke-opacity:1;fill-opacity:1" />
    <rect
       style="color:#000000;fill:#ffffff;fill-opacity:1;fill-rule:nonzero;stroke:none;stroke-width:10;stroke-linecap:butt;stroke-linejoin:miter;stroke-miterlimit:4;stroke-opacity:1;stroke-dasharray:none;stroke-dashoffset:0;marker:none;visibility:visible;display:inline;overflow:visible;enable-background:accumulate"
       id="rect4850"
       width="185.6842"
       height="2148.6316"
       x="1849.2632"
       y="-178.69664"
       transform="translate(-1501.4286,-743.35205)" />
    <rect
       style="color:#000000;fill:#ffffff;fill-opacity:1;fill-rule:nonzero;stroke:none;stroke-width:10;marker:none;visibility:visible;display:inline;overflow:visible;enable-background:accumulate"
       id="rect4852"
       width="295.57895"
       height="2141.0527"
       x="2436.1501"
       y="-850.04871" />
    <path
       inkscape:connector-curvature="0"
       id="path4528"
       d="m -352.32436,-196.73782 c -1.2016,-0.44671 -2.6641,-1.708 -3.25,-2.80286 -1.5879,-2.9669 -1.3231,-15.72322 0.3954,-19.04625 2.1501,-4.15797 3.2571,-12.57827 5.5315,-42.0759 5.3319,-69.15028 10.8854,-87.71278 28.7302,-96.03078 24.1139,-11.24018 29.4306,-14.74662 30.8331,-20.33477 1.2981,-5.17188 -2.2965,-10.37864 -19.0776,-27.63445 -8.8254,-9.075 -17.4335,-18.3 -19.129,-20.5 -10.7246,-13.91518 -10.9066,-26.0278 -0.537,-35.72737 6.3115,-5.90371 11.2799,-8.69527 31.654,-17.78528 23.7951,-10.61628 29.534,-14.79682 29.534,-21.51408 0,-5.0349 -5.2457,-11.89241 -22.9748,-30.03419 -19.0599,-19.50359 -23.3109,-26.01571 -23.3109,-35.71023 0,-13.41425 8.2944,-20.47451 40.735,-34.67393 7.6721,-3.35813 14.8088,-6.88176 15.8593,-7.8303 2.844,-2.56785 7.0683,-11.52352 10.4832,-22.22462 2.8456,-8.917 5.5624,-20.53193 13.1907,-56.39333 3.3418,-15.71005 7.7253,-29.92365 10.4109,-33.7579 1.0508,-1.50022 1.6066,-4.41194 1.6066,-8.41629 0,-6.89011 1.7058,-9.43248 6.3287,-9.43248 4.8139,0 6.6713,3.08633 6.6713,11.08546 0,6.05378 -0.5007,8.10186 -3.4389,14.06596 -3.5139,7.13278 -7.1814,21.25175 -14.1171,54.34858 -6.3841,30.46418 -12.0574,47.16295 -19.3129,56.84599 -3.9546,5.27772 -8.1761,7.74079 -27.6311,16.12177 -14.0617,6.05758 -20.1607,9.53597 -24.3895,13.90966 -2.9905,3.09296 -3.3271,3.9707 -2.8597,7.45575 0.7609,5.67321 3.6248,9.35923 21.1554,27.22897 22.8096,23.25084 27.5766,31.8981 24.0784,43.67789 -3.043,10.24671 -11.0904,16.03663 -39.8966,28.70451 -22.4778,9.88492 -29.7665,15.7003 -28.0914,22.41316 1.2657,5.07264 5.0317,9.75769 21.0136,26.1423 21.192,21.72593 25.5218,28.25013 25.4678,38.37573 -0.059,11.04232 -7.7014,18.61738 -29.3257,29.06646 l -15.4674,7.474 -2.6321,5.56375 c -6.1141,12.92412 -8.7272,29.29293 -12.5349,78.52006 -2.1561,27.87506 -3.2859,36.31226 -5.6059,41.86494 -0.7766,1.85862 -1.412,6.17961 -1.412,9.6022 0,4.68732 -0.4318,6.59376 -1.75,7.72587 -2.5306,2.17338 -4.4547,2.65396 -6.9346,1.732 z"
       style="fill:#1b71f9;fill-opacity:1" />
    <path
       inkscape:connector-curvature="0"
       id="path4522"
       d="m -299.8052,688.14623 c -2.8325,-2.34015 -4.6035,-11.70534 -3.7704,-19.93836 0.9722,-9.6063 8.3833,-42.62885 12.1428,-54.10559 6.1209,-18.68542 14.072,-30.97139 22.7682,-35.18114 2.3644,-1.14458 9.4469,-3.00692 15.7388,-4.13852 6.2919,-1.1316 11.8898,-2.50711 12.4398,-3.05668 1.396,-1.39496 -1.0139,-3.04369 -19.4079,-13.27777 -23.9353,-13.31708 -29.5467,-18.19027 -29.5467,-25.65986 0,-8.26643 7.7396,-12.31285 30.4546,-15.92232 18.5894,-2.95391 28.2901,-4.92143 29.3143,-5.94557 1.1416,-1.14157 -4.7107,-5.03493 -21.8143,-14.51241 -22.8159,-12.64279 -28.5519,-18.15275 -27.0777,-26.0106 1.2987,-6.92297 8.8483,-10.67438 27.9303,-13.87869 7.3836,-1.23988 14.1469,-2.85367 15.0295,-3.58619 1.8618,-1.54511 5.7579,-13.32589 8.005,-24.20489 4.3679,-21.14642 8.6129,-58.82872 8.6129,-76.45566 0,-7.65198 0.4626,-14.43309 1.0608,-15.55089 2.5119,-4.69345 10.3427,-4.11135 11.5908,0.8616 1.16,4.62193 -0.4798,40.88582 -2.5662,56.75201 -5.7168,43.47178 -10.8479,62.57228 -18.6497,69.42235 -2.5129,2.20628 -4.9603,3.13432 -10.6014,4.01991 -13.03,2.04556 -23.3136,4.17844 -24.1689,5.01278 -1.2448,1.21426 4.2521,4.97545 19.8346,13.57168 15.8208,8.72771 18.6245,10.51571 23.3353,14.88195 6.8804,6.37704 7.7122,12.32289 2.4869,17.77686 -3.6445,3.80412 -12.052,6.34136 -30.8222,9.30165 -21.9076,3.45508 -25.6722,4.38791 -25.3017,6.26939 0.1659,0.84275 5.0267,4.21279 10.8017,7.48896 5.775,3.27618 14.1,7.99272 18.5,10.4812 14.194,8.02764 19.5,13.50961 19.5,20.14688 0,6.90527 -7.8822,11.68778 -24,14.56192 -5.225,0.93173 -10.5043,1.8964 -11.7317,2.14371 -3.396,0.68428 -8.8692,5.97983 -12.2034,11.80731 -4.2906,7.49923 -9.2975,23.32643 -14.1134,44.61345 -3.6275,16.03398 -4.1743,19.98702 -4.1022,29.65557 0.088,11.82697 -0.2017,12.64181 -4.9181,13.82557 -1.7392,0.43651 -3.2593,0.0622 -4.7504,-1.16961 z"
       style="fill:#1b71f9;fill-opacity:1" />
    <path
       style="fill:#1b71f9;fill-opacity:1"
       d="m 1605.9968,198.26521 c -1.2722,-0.15775 -2.986,-1.04803 -3.8084,-1.97838 -2.229,-2.52107 -4.9113,-14.99502 -4.0049,-18.62465 1.1339,-4.54157 0.2705,-12.99032 -4.3145,-42.21805 -10.7486,-68.51758 -9.6226,-87.86028 5.8247,-100.06702 20.8743,-16.49506 25.2398,-21.13243 25.3166,-26.89338 0.071,-5.33183 -4.6266,-9.56999 -24.9329,-22.49376 -10.6792,-6.79673 -21.1818,-13.78951 -23.3386,-15.53952 -13.6429,-11.06892 -16.6116,-22.81351 -8.7566,-34.64183 4.781,-7.19938 8.9724,-11.06085 26.703,-24.60172 20.7078,-15.8145 25.3288,-21.20513 23.7806,-27.74156 -1.1603,-4.89937 -7.8453,-10.3633 -29.2782,-23.93071 -23.0418,-14.58587 -28.6792,-19.94297 -30.9134,-29.37651 -3.0916,-13.05314 3.3524,-21.83493 31.6472,-43.12861 6.6916,-5.0359 12.824,-10.10945 13.6277,-11.27456 2.1756,-3.15417 4.2222,-12.84232 5.079,-24.04238 0.7138,-9.33277 0.6807,-21.26116 -0.1613,-57.91524 -0.3689,-16.05731 0.6209,-30.89854 2.3505,-35.24852 0.6768,-1.70201 0.5466,-4.66344 -0.3764,-8.55999 -1.5878,-6.70463 -0.5139,-9.57169 3.9845,-10.63712 4.6843,-1.10945 7.2031,1.46573 9.0466,9.24952 1.3952,5.89081 1.38,7.99915 -0.1046,14.47986 -1.7754,7.7506 -2.0903,22.33474 -1.2115,56.13905 0.8083,31.11543 -0.8633,48.67216 -5.6918,59.76669 -2.6318,6.04705 -6.1719,9.41674 -23.1718,22.05585 -12.287,9.13528 -17.4202,13.92566 -20.5271,19.15621 -2.1972,3.6989 -2.3225,4.63059 -1.0645,7.91411 2.0479,5.34512 5.6843,8.27187 26.8614,21.62032 27.5541,17.36806 34.1857,24.68389 33.4966,36.95279 -0.5997,10.67218 -7.096,18.16091 -32.2072,37.12666 -19.5945,14.79923 -25.3467,22.13786 -22.1696,28.28396 2.4006,4.64439 7.145,8.33537 26.4728,20.59559 25.6287,16.257 31.3455,21.60769 33.6266,31.47315 2.4875,10.75865 -3.2034,19.89112 -21.8374,35.04262 l -13.3284,10.83754 -1.279,6.02058 c -2.971,13.98531 -1.7413,30.5157 5.8989,79.29519 4.3262,27.62157 5.1713,36.09203 4.1935,42.02991 -0.3274,1.98757 0.05,6.33868 0.8389,9.66913 1.0803,4.56114 1.0995,6.51577 0.078,7.92121 -1.9616,2.69809 -3.7232,3.60918 -6.3488,3.28358 z"
       id="path4691"
       inkscape:connector-curvature="0" />
    <path
       style="fill:#1b71f9;fill-opacity:1"
       d="m 1601.0994,954.52403 c -3.2456,-1.72198 -6.8658,-10.53887 -7.7073,-18.77104 -0.9817,-9.60533 -0.3706,-43.44377 1.0014,-55.4424 2.2337,-19.53511 7.5486,-33.17028 15.2192,-39.04459 2.0855,-1.59715 8.6481,-4.84724 14.5833,-7.22239 5.9353,-2.37514 11.1416,-4.84949 11.5697,-5.49853 1.0866,-1.64745 -1.6059,-2.77725 -21.6836,-9.09861 -26.1263,-8.22564 -32.6039,-11.86934 -34.1077,-19.18599 -1.6642,-8.09717 5.1022,-13.61891 26.6255,-21.72756 17.614,-6.63594 26.72,-10.51616 27.5171,-11.72553 0.8884,-1.34803 -5.6279,-3.98345 -24.2894,-9.8235 -24.894,-7.79052 -31.6219,-12.03286 -31.7598,-20.02661 -0.1217,-7.04268 6.5181,-12.2372 24.5642,-19.21758 6.9828,-2.701 13.2828,-5.64336 13.9998,-6.53857 1.5126,-1.8883 2.9572,-14.21225 2.9681,-25.32089 0.021,-21.5928 -3.4072,-59.35817 -6.9559,-76.62419 -1.5405,-7.4953 -2.4526,-14.2307 -2.0917,-15.44604 1.5156,-5.10306 9.3032,-6.10941 11.5269,-1.48956 2.0668,4.29376 7.7614,40.14526 8.912,56.10663 3.1522,43.73261 1.9715,63.47504 -4.2914,71.75554 -2.0173,2.66702 -4.2278,4.06878 -9.5751,6.07193 -12.3513,4.62693 -21.995,8.78648 -22.6648,9.77593 -0.9748,1.44001 5.1667,4.01753 22.1608,9.3006 17.254,5.36389 20.3602,6.55083 25.8536,9.87927 8.0234,4.86127 10.0352,10.51791 6.0149,16.91219 -2.804,4.45996 -10.5286,8.63789 -28.3184,15.31647 -20.7635,7.79487 -24.2632,9.46651 -23.5215,11.23488 0.3322,0.79209 5.7719,3.11453 12.0882,5.16097 6.3164,2.04645 15.4205,4.99039 20.2314,6.54208 15.5195,5.00567 21.8205,9.30717 23.1568,15.80854 1.3902,6.76388 -5.3678,13.03535 -20.577,19.09555 -4.9304,1.96457 -9.9074,3.97234 -11.0599,4.4617 -3.1887,1.35396 -7.4837,7.64297 -9.5764,14.02239 -2.693,8.20948 -4.4109,24.72063 -4.8426,46.54135 -0.3252,16.43598 -0.065,20.41816 1.9522,29.87423 2.4672,11.56709 2.3475,12.42357 -2.034,14.53262 -1.6157,0.77772 -3.18,0.7171 -4.8886,-0.18929 z"
       id="path4848"
       inkscape:connector-curvature="0" />
  </g>
</svg>
